  0
SECTION
  2
HEADER
  9
$ACADVER
  1
AC1014
  9
$HANDSEED
  5
FFFF
  9
$MEASUREMENT
 70
     1
  0
ENDSEC
  0
SECTION
  2
TABLES
  0
TABLE
  2
VPORT
  5
8
330
0
100
AcDbSymbolTable
 70
     4
  0
VPORT
  5
2E
330
8
100
AcDbSymbolTableRecord
100
AcDbViewportTableRecord
  2
*ACTIVE
 70
     0
 10
0.0
 20
0.0
 11
1.0
 21
1.0
 12
210.0
 22
148.5
 13
0.0
 23
0.0
 14
10.0
 24
10.0
 15
10.0
 25
10.0
 16
0.0
 26
0.0
 36
1.0
 17
0.0
 27
0.0
 37
0.0
 40
341.0
 41
1.24
 42
50.0
 43
0.0
 44
0.0
 50
0.0
 51
0.0
 71
     0
 72
   100
 73
     1
 74
     3
 75
     0
 76
     0
 77
     0
 78
     0
  0
ENDTAB
  0
TABLE
  2
LTYPE
  5
5
330
0
100
AcDbSymbolTable
 70
     1
  0
LTYPE
  5
14
330
5
100
AcDbSymbolTableRecord
100
AcDbLinetypeTableRecord
  2
BYBLOCK
 70
     0
  3

 72
    65
 73
     0
 40
0.0
  0
LTYPE
  5
15
330
5
100
AcDbSymbolTableRecord
100
AcDbLinetypeTableRecord
  2
BYLAYER
 70
     0
  3

 72
    65
 73
     0
 40
0.0
  0
LTYPE
  5
16
330
5
100
AcDbSymbolTableRecord
100
AcDbLinetypeTableRecord
  2
CONTINUOUS
 70
     0
  3
Solid line
 72
    65
 73
     0
 40
0.0
  0
ENDTAB
  0
TABLE
  2
LAYER
  5
2
100
AcDbSymbolTable
 70
2
  0
LAYER
  5
50
100
AcDbSymbolTableRecord
100
AcDbLayerTableRecord
  2
0
 70
0
  6
CONTINUOUS
  0
LAYER
  5
51
100
AcDbSymbolTableRecord
100
AcDbLayerTableRecord
  2
Layer_1
 70
0
  6
CONTINUOUS
  0
ENDTAB
  0
TABLE
  2
STYLE
  5
3
330
0
100
AcDbSymbolTable
 70
     1
  0
STYLE
  5
11
330
3
100
AcDbSymbolTableRecord
100
AcDbTextStyleTableRecord
  2
STANDARD
 70
     0
 40
0.0
 41
1.0
 50
0.0
 71
     0
 42
2.5
  3
txt
  4

  0
ENDTAB
  0
TABLE
  2
VIEW
  5
6
330
0
100
AcDbSymbolTable
 70
     0
  0
ENDTAB
  0
TABLE
  2
UCS
  5
7
330
0
100
AcDbSymbolTable
 70
     0
  0
ENDTAB
  0
TABLE
  2
APPID
  5
9
330
0
100
AcDbSymbolTable
 70
     2
  0
APPID
  5
12
330
9
100
AcDbSymbolTableRecord
100
AcDbRegAppTableRecord
  2
ACAD
 70
     0
  0
ENDTAB
  0
TABLE
  2
DIMSTYLE
  5
A
330
0
100
AcDbSymbolTable
 70
     1
  0
DIMSTYLE
105
27
330
A
100
AcDbSymbolTableRecord
100
AcDbDimStyleTableRecord
  2
ISO-25
 70
     0
  3

  4

  5

  6

  7

 40
1.0
 41
2.5
 42
0.625
 43
3.75
 44
1.25
 45
0.0
 46
0.0
 47
0.0
 48
0.0
140
2.5
141
2.5
142
0.0
143
0.03937007874016
144
1.0
145
0.0
146
1.0
147
0.625
 71
     0
 72
     0
 73
     0
 74
     0
 75
     0
 76
     0
 77
     1
 78
     8
170
     0
171
     3
172
     1
173
     0
174
     0
175
     0
176
     0
177
     0
178
     0
270
     2
271
     2
272
     2
273
     2
274
     3
340
11
275
     0
280
     0
281
     0
282
     0
283
     0
284
     8
285
     0
286
     0
287
     3
288
     0
  0
ENDTAB
  0
TABLE
  2
BLOCK_RECORD
  5
1
330
0
100
AcDbSymbolTable
 70
     1
  0
BLOCK_RECORD
  5
1F
330
1
100
AcDbSymbolTableRecord
100
AcDbBlockTableRecord
  2
*MODEL_SPACE
  0
BLOCK_RECORD
  5
1B
330
1
100
AcDbSymbolTableRecord
100
AcDbBlockTableRecord
  2
*PAPER_SPACE
  0
ENDTAB
  0
ENDSEC
  0
SECTION
  2
BLOCKS
  0
BLOCK
  5
20
330
1F
100
AcDbEntity
  8
0
100
AcDbBlockBegin
  2
*MODEL_SPACE
 70
     0
 10
0.0
 20
0.0
 30
0.0
  3
*MODEL_SPACE
  1

  0
ENDBLK
  5
21
330
1F
100
AcDbEntity
  8
0
100
AcDbBlockEnd
  0
BLOCK
  5
1C
330
1B
100
AcDbEntity
 67
     1
  8
0
100
AcDbBlockBegin
  2
*PAPER_SPACE
  1

  0
ENDBLK
  5
1D
330
1B
100
AcDbEntity
 67
     1
  8
0
100
AcDbBlockEnd
  0
ENDSEC
  0
SECTION
  2
ENTITIES
  0
SPLINE
  5
100
100
AcDbEntity
  8
Layer_1
 62
7
100
AcDbSpline
 70
8
 71
3
 72
8
 73
4
 74
0
 40
0
 40
0
 40
0
 40
0
 40
1
 40
1
 40
1
 40
1
 10
2.427553
 20
7.936204
 30
0.0
 10
2.403667
 20
7.936204
 30
0.0
 10
2.382134
 20
7.921815
 30
0.0
 10
2.372993
 20
7.899748
 30
0.0
  0
SPLINE
  5
101
100
AcDbEntity
  8
Layer_1
 62
7
100
AcDbSpline
 70
8
 71
3
 72
8
 73
4
 74
0
 40
0
 40
0
 40
0
 40
0
 40
1
 40
1
 40
1
 40
1
 10
2.372993
 20
7.899748
 30
0.0
 10
2.363852
 20
7.877681
 30
0.0
 10
2.368905
 20
7.852280
 30
0.0
 10
2.385794
 20
7.835390
 30
0.0
  0
SPLINE
  5
102
100
AcDbEntity
  8
Layer_1
 62
7
100
AcDbSpline
 70
8
 71
3
 72
8
 73
4
 74
0
 40
0
 40
0
 40
0
 40
0
 40
1
 40
1
 40
1
 40
1
 10
2.385794
 20
7.835390
 30
0.0
 10
2.402684
 20
7.818501
 30
0.0
 10
2.428085
 20
7.813448
 30
0.0
 10
2.450152
 20
7.822589
 30
0.0
  0
SPLINE
  5
103
100
AcDbEntity
  8
Layer_1
 62
7
100
AcDbSpline
 70
8
 71
3
 72
8
 73
4
 74
0
 40
0
 40
0
 40
0
 40
0
 40
1
 40
1
 40
1
 40
1
 10
2.450152
 20
7.822589
 30
0.0
 10
2.472220
 20
7.831729
 30
0.0
 10
2.486608
 20
7.853263
 30
0.0
 10
2.486608
 20
7.877149
 30
0.0
  0
SPLINE
  5
104
100
AcDbEntity
  8
Layer_1
 62
7
100
AcDbSpline
 70
8
 71
3
 72
8
 73
4
 74
0
 40
0
 40
0
 40
0
 40
0
 40
1
 40
1
 40
1
 40
1
 10
2.486608
 20
7.877149
 30
0.0
 10
2.486608
 20
7.909764
 30
0.0
 10
2.460168
 20
7.936204
 30
0.0
 10
2.427553
 20
7.936204
 30
0.0
  0
LWPOLYLINE
  5
105
100
AcDbEntity
  8
Layer_1
 62
7
100
AcDbPolyline
 90
4
 70
1
 10
2.329129
 20
10.140931
 30
0.0
 10
6.187396
 20
10.140931
 30
0.0
 10
6.187396
 20
7.778726
 30
0.0
 10
2.329129
 20
7.778726
 30
0.0
  0
SPLINE
  5
106
100
AcDbEntity
  8
Layer_1
 62
7
100
AcDbSpline
 70
8
 71
3
 72
8
 73
4
 74
0
 40
0
 40
0
 40
0
 40
0
 40
1
 40
1
 40
1
 40
1
 10
6.088972
 20
7.936204
 30
0.0
 10
6.065087
 20
7.936204
 30
0.0
 10
6.043553
 20
7.921815
 30
0.0
 10
6.034413
 20
7.899748
 30
0.0
  0
SPLINE
  5
107
100
AcDbEntity
  8
Layer_1
 62
7
100
AcDbSpline
 70
8
 71
3
 72
8
 73
4
 74
0
 40
0
 40
0
 40
0
 40
0
 40
1
 40
1
 40
1
 40
1
 10
6.034413
 20
7.899748
 30
0.0
 10
6.025272
 20
7.877681
 30
0.0
 10
6.030325
 20
7.852280
 30
0.0
 10
6.047214
 20
7.835390
 30
0.0
  0
SPLINE
  5
108
100
AcDbEntity
  8
Layer_1
 62
7
100
AcDbSpline
 70
8
 71
3
 72
8
 73
4
 74
0
 40
0
 40
0
 40
0
 40
0
 40
1
 40
1
 40
1
 40
1
 10
6.047214
 20
7.835390
 30
0.0
 10
6.064104
 20
7.818501
 30
0.0
 10
6.089504
 20
7.813448
 30
0.0
 10
6.111572
 20
7.822589
 30
0.0
  0
SPLINE
  5
109
100
AcDbEntity
  8
Layer_1
 62
7
100
AcDbSpline
 70
8
 71
3
 72
8
 73
4
 74
0
 40
0
 40
0
 40
0
 40
0
 40
1
 40
1
 40
1
 40
1
 10
6.111572
 20
7.822589
 30
0.0
 10
6.133639
 20
7.831729
 30
0.0
 10
6.148028
 20
7.853263
 30
0.0
 10
6.148028
 20
7.877149
 30
0.0
  0
SPLINE
  5
10a
100
AcDbEntity
  8
Layer_1
 62
7
100
AcDbSpline
 70
8
 71
3
 72
8
 73
4
 74
0
 40
0
 40
0
 40
0
 40
0
 40
1
 40
1
 40
1
 40
1
 10
6.148028
 20
7.877149
 30
0.0
 10
6.148028
 20
7.892811
 30
0.0
 10
6.141806
 20
7.907832
 30
0.0
 10
6.130731
 20
7.918907
 30
0.0
  0
SPLINE
  5
10b
100
AcDbEntity
  8
Layer_1
 62
7
100
AcDbSpline
 70
8
 71
3
 72
8
 73
4
 74
0
 40
0
 40
0
 40
0
 40
0
 40
1
 40
1
 40
1
 40
1
 10
6.130731
 20
7.918907
 30
0.0
 10
6.119656
 20
7.929982
 30
0.0
 10
6.104635
 20
7.936204
 30
0.0
 10
6.088972
 20
7.936204
 30
0.0
  0
LWPOLYLINE
  5
10c
100
AcDbEntity
  8
Layer_1
 62
7
100
AcDbPolyline
 90
1
 70
1
 10
2.427553
 20
7.936204
 30
0.0
  0
SPLINE
  5
10d
100
AcDbEntity
  8
Layer_1
 62
7
100
AcDbSpline
 70
8
 71
3
 72
8
 73
4
 74
0
 40
0
 40
0
 40
0
 40
0
 40
1
 40
1
 40
1
 40
1
 10
2.427553
 20
10.101564
 30
0.0
 10
2.403667
 20
10.101564
 30
0.0
 10
2.382134
 20
10.087176
 30
0.0
 10
2.372993
 20
10.065109
 30
0.0
  0
SPLINE
  5
10e
100
AcDbEntity
  8
Layer_1
 62
7
100
AcDbSpline
 70
8
 71
3
 72
8
 73
4
 74
0
 40
0
 40
0
 40
0
 40
0
 40
1
 40
1
 40
1
 40
1
 10
2.372993
 20
10.065109
 30
0.0
 10
2.363852
 20
10.043041
 30
0.0
 10
2.368905
 20
10.017641
 30
0.0
 10
2.385794
 20
10.000751
 30
0.0
  0
SPLINE
  5
10f
100
AcDbEntity
  8
Layer_1
 62
7
100
AcDbSpline
 70
8
 71
3
 72
8
 73
4
 74
0
 40
0
 40
0
 40
0
 40
0
 40
1
 40
1
 40
1
 40
1
 10
2.385794
 20
10.000751
 30
0.0
 10
2.402684
 20
9.983861
 30
0.0
 10
2.428085
 20
9.978809
 30
0.0
 10
2.450152
 20
9.987949
 30
0.0
  0
SPLINE
  5
110
100
AcDbEntity
  8
Layer_1
 62
7
100
AcDbSpline
 70
8
 71
3
 72
8
 73
4
 74
0
 40
0
 40
0
 40
0
 40
0
 40
1
 40
1
 40
1
 40
1
 10
2.450152
 20
9.987949
 30
0.0
 10
2.472220
 20
9.997090
 30
0.0
 10
2.486608
 20
10.018624
 30
0.0
 10
2.486608
 20
10.042509
 30
0.0
  0
SPLINE
  5
111
100
AcDbEntity
  8
Layer_1
 62
7
100
AcDbSpline
 70
8
 71
3
 72
8
 73
4
 74
0
 40
0
 40
0
 40
0
 40
0
 40
1
 40
1
 40
1
 40
1
 10
2.486608
 20
10.042509
 30
0.0
 10
2.486608
 20
10.075124
 30
0.0
 10
2.460168
 20
10.101564
 30
0.0
 10
2.427553
 20
10.101564
 30
0.0
  0
LWPOLYLINE
  5
112
100
AcDbEntity
  8
Layer_1
 62
7
100
AcDbPolyline
 90
1
 70
1
 10
6.088972
 20
7.936204
 30
0.0
  0
SPLINE
  5
113
100
AcDbEntity
  8
Layer_1
 62
7
100
AcDbSpline
 70
8
 71
3
 72
8
 73
4
 74
0
 40
0
 40
0
 40
0
 40
0
 40
1
 40
1
 40
1
 40
1
 10
6.088972
 20
10.101564
 30
0.0
 10
6.065087
 20
10.101564
 30
0.0
 10
6.043553
 20
10.087176
 30
0.0
 10
6.034413
 20
10.065109
 30
0.0
  0
SPLINE
  5
114
100
AcDbEntity
  8
Layer_1
 62
7
100
AcDbSpline
 70
8
 71
3
 72
8
 73
4
 74
0
 40
0
 40
0
 40
0
 40
0
 40
1
 40
1
 40
1
 40
1
 10
6.034413
 20
10.065109
 30
0.0
 10
6.025272
 20
10.043041
 30
0.0
 10
6.030325
 20
10.017641
 30
0.0
 10
6.047214
 20
10.000751
 30
0.0
  0
SPLINE
  5
115
100
AcDbEntity
  8
Layer_1
 62
7
100
AcDbSpline
 70
8
 71
3
 72
8
 73
4
 74
0
 40
0
 40
0
 40
0
 40
0
 40
1
 40
1
 40
1
 40
1
 10
6.047214
 20
10.000751
 30
0.0
 10
6.064104
 20
9.983861
 30
0.0
 10
6.089504
 20
9.978809
 30
0.0
 10
6.111572
 20
9.987949
 30
0.0
  0
SPLINE
  5
116
100
AcDbEntity
  8
Layer_1
 62
7
100
AcDbSpline
 70
8
 71
3
 72
8
 73
4
 74
0
 40
0
 40
0
 40
0
 40
0
 40
1
 40
1
 40
1
 40
1
 10
6.111572
 20
9.987949
 30
0.0
 10
6.133639
 20
9.997090
 30
0.0
 10
6.148028
 20
10.018624
 30
0.0
 10
6.148028
 20
10.042509
 30
0.0
  0
SPLINE
  5
117
100
AcDbEntity
  8
Layer_1
 62
7
100
AcDbSpline
 70
8
 71
3
 72
8
 73
4
 74
0
 40
0
 40
0
 40
0
 40
0
 40
1
 40
1
 40
1
 40
1
 10
6.148028
 20
10.042509
 30
0.0
 10
6.148028
 20
10.058172
 30
0.0
 10
6.141806
 20
10.073192
 30
0.0
 10
6.130731
 20
10.084267
 30
0.0
  0
SPLINE
  5
118
100
AcDbEntity
  8
Layer_1
 62
7
100
AcDbSpline
 70
8
 71
3
 72
8
 73
4
 74
0
 40
0
 40
0
 40
0
 40
0
 40
1
 40
1
 40
1
 40
1
 10
6.130731
 20
10.084267
 30
0.0
 10
6.119656
 20
10.095342
 30
0.0
 10
6.104635
 20
10.101564
 30
0.0
 10
6.088972
 20
10.101564
 30
0.0
  0
LWPOLYLINE
  5
119
100
AcDbEntity
  8
Layer_1
 62
7
100
AcDbPolyline
 90
1
 70
1
 10
2.427553
 20
10.101564
 30
0.0
  0
LWPOLYLINE
  5
11a
100
AcDbEntity
  8
Layer_1
 62
7
100
AcDbPolyline
 90
1
 70
1
 10
6.088972
 20
10.101564
 30
0.0
  0
SPLINE
  5
11b
100
AcDbEntity
  8
Layer_1
 62
7
100
AcDbSpline
 70
8
 71
3
 72
8
 73
4
 74
0
 40
0
 40
0
 40
0
 40
0
 40
1
 40
1
 40
1
 40
1
 10
2.725658
 20
12.120767
 30
0.0
 10
2.709735
 20
12.120767
 30
0.0
 10
2.695379
 20
12.111175
 30
0.0
 10
2.689285
 20
12.096463
 30
0.0
  0
SPLINE
  5
11c
100
AcDbEntity
  8
Layer_1
 62
7
100
AcDbSpline
 70
8
 71
3
 72
8
 73
4
 74
0
 40
0
 40
0
 40
0
 40
0
 40
1
 40
1
 40
1
 40
1
 10
2.689285
 20
12.096463
 30
0.0
 10
2.683191
 20
12.081752
 30
0.0
 10
2.686560
 20
12.064818
 30
0.0
 10
2.697819
 20
12.053558
 30
0.0
  0
SPLINE
  5
11d
100
AcDbEntity
  8
Layer_1
 62
7
100
AcDbSpline
 70
8
 71
3
 72
8
 73
4
 74
0
 40
0
 40
0
 40
0
 40
0
 40
1
 40
1
 40
1
 40
1
 10
2.697819
 20
12.053558
 30
0.0
 10
2.709079
 20
12.042298
 30
0.0
 10
2.726013
 20
12.038930
 30
0.0
 10
2.740725
 20
12.045024
 30
0.0
  0
SPLINE
  5
11e
100
AcDbEntity
  8
Layer_1
 62
7
100
AcDbSpline
 70
8
 71
3
 72
8
 73
4
 74
0
 40
0
 40
0
 40
0
 40
0
 40
1
 40
1
 40
1
 40
1
 10
2.740725
 20
12.045024
 30
0.0
 10
2.755436
 20
12.051118
 30
0.0
 10
2.765028
 20
12.065473
 30
0.0
 10
2.765028
 20
12.081397
 30
0.0
  0
SPLINE
  5
11f
100
AcDbEntity
  8
Layer_1
 62
7
100
AcDbSpline
 70
8
 71
3
 72
8
 73
4
 74
0
 40
0
 40
0
 40
0
 40
0
 40
1
 40
1
 40
1
 40
1
 10
2.765028
 20
12.081397
 30
0.0
 10
2.765028
 20
12.091839
 30
0.0
 10
2.760880
 20
12.101853
 30
0.0
 10
2.753497
 20
12.109236
 30
0.0
  0
SPLINE
  5
120
100
AcDbEntity
  8
Layer_1
 62
7
100
AcDbSpline
 70
8
 71
3
 72
8
 73
4
 74
0
 40
0
 40
0
 40
0
 40
0
 40
1
 40
1
 40
1
 40
1
 10
2.753497
 20
12.109236
 30
0.0
 10
2.746114
 20
12.116619
 30
0.0
 10
2.736100
 20
12.120767
 30
0.0
 10
2.725658
 20
12.120767
 30
0.0
  0
LWPOLYLINE
  5
121
100
AcDbEntity
  8
Layer_1
 62
7
100
AcDbPolyline
 90
4
 70
1
 10
2.522906
 20
12.406198
 30
0.0
 10
6.026843
 20
12.406198
 30
0.0
 10
6.026843
 20
10.358954
 30
0.0
 10
2.522906
 20
10.358954
 30
0.0
  0
SPLINE
  5
122
100
AcDbEntity
  8
Layer_1
 62
7
100
AcDbSpline
 70
8
 71
3
 72
8
 73
4
 74
0
 40
0
 40
0
 40
0
 40
0
 40
1
 40
1
 40
1
 40
1
 10
5.824090
 20
12.120767
 30
0.0
 10
5.808166
 20
12.120767
 30
0.0
 10
5.793811
 20
12.111175
 30
0.0
 10
5.787717
 20
12.096463
 30
0.0
  0
SPLINE
  5
123
100
AcDbEntity
  8
Layer_1
 62
7
100
AcDbSpline
 70
8
 71
3
 72
8
 73
4
 74
0
 40
0
 40
0
 40
0
 40
0
 40
1
 40
1
 40
1
 40
1
 10
5.787717
 20
12.096463
 30
0.0
 10
5.781623
 20
12.081752
 30
0.0
 10
5.784992
 20
12.064818
 30
0.0
 10
5.796251
 20
12.053558
 30
0.0
  0
SPLINE
  5
124
100
AcDbEntity
  8
Layer_1
 62
7
100
AcDbSpline
 70
8
 71
3
 72
8
 73
4
 74
0
 40
0
 40
0
 40
0
 40
0
 40
1
 40
1
 40
1
 40
1
 10
5.796251
 20
12.053558
 30
0.0
 10
5.807511
 20
12.042298
 30
0.0
 10
5.824445
 20
12.038930
 30
0.0
 10
5.839156
 20
12.045024
 30
0.0
  0
SPLINE
  5
125
100
AcDbEntity
  8
Layer_1
 62
7
100
AcDbSpline
 70
8
 71
3
 72
8
 73
4
 74
0
 40
0
 40
0
 40
0
 40
0
 40
1
 40
1
 40
1
 40
1
 10
5.839156
 20
12.045024
 30
0.0
 10
5.853868
 20
12.051118
 30
0.0
 10
5.863460
 20
12.065473
 30
0.0
 10
5.863460
 20
12.081397
 30
0.0
  0
SPLINE
  5
126
100
AcDbEntity
  8
Layer_1
 62
7
100
AcDbSpline
 70
8
 71
3
 72
8
 73
4
 74
0
 40
0
 40
0
 40
0
 40
0
 40
1
 40
1
 40
1
 40
1
 10
5.863460
 20
12.081397
 30
0.0
 10
5.863460
 20
12.091839
 30
0.0
 10
5.859312
 20
12.101853
 30
0.0
 10
5.851929
 20
12.109236
 30
0.0
  0
SPLINE
  5
127
100
AcDbEntity
  8
Layer_1
 62
7
100
AcDbSpline
 70
8
 71
3
 72
8
 73
4
 74
0
 40
0
 40
0
 40
0
 40
0
 40
1
 40
1
 40
1
 40
1
 10
5.851929
 20
12.109236
 30
0.0
 10
5.844546
 20
12.116619
 30
0.0
 10
5.834532
 20
12.120767
 30
0.0
 10
5.824090
 20
12.120767
 30
0.0
  0
LWPOLYLINE
  5
128
100
AcDbEntity
  8
Layer_1
 62
7
100
AcDbPolyline
 90
1
 70
1
 10
2.725658
 20
12.120767
 30
0.0
  0
SPLINE
  5
129
100
AcDbEntity
  8
Layer_1
 62
7
100
AcDbSpline
 70
8
 71
3
 72
8
 73
4
 74
0
 40
0
 40
0
 40
0
 40
0
 40
1
 40
1
 40
1
 40
1
 10
2.725658
 20
10.723125
 30
0.0
 10
2.709735
 20
10.723125
 30
0.0
 10
2.695379
 20
10.713533
 30
0.0
 10
2.689285
 20
10.698821
 30
0.0
  0
SPLINE
  5
12a
100
AcDbEntity
  8
Layer_1
 62
7
100
AcDbSpline
 70
8
 71
3
 72
8
 73
4
 74
0
 40
0
 40
0
 40
0
 40
0
 40
1
 40
1
 40
1
 40
1
 10
2.689285
 20
10.698821
 30
0.0
 10
2.683191
 20
10.684110
 30
0.0
 10
2.686560
 20
10.667176
 30
0.0
 10
2.697819
 20
10.655916
 30
0.0
  0
SPLINE
  5
12b
100
AcDbEntity
  8
Layer_1
 62
7
100
AcDbSpline
 70
8
 71
3
 72
8
 73
4
 74
0
 40
0
 40
0
 40
0
 40
0
 40
1
 40
1
 40
1
 40
1
 10
2.697819
 20
10.655916
 30
0.0
 10
2.709079
 20
10.644657
 30
0.0
 10
2.726013
 20
10.641288
 30
0.0
 10
2.740725
 20
10.647382
 30
0.0
  0
SPLINE
  5
12c
100
AcDbEntity
  8
Layer_1
 62
7
100
AcDbSpline
 70
8
 71
3
 72
8
 73
4
 74
0
 40
0
 40
0
 40
0
 40
0
 40
1
 40
1
 40
1
 40
1
 10
2.740725
 20
10.647382
 30
0.0
 10
2.755436
 20
10.653476
 30
0.0
 10
2.765028
 20
10.667831
 30
0.0
 10
2.765028
 20
10.683755
 30
0.0
  0
SPLINE
  5
12d
100
AcDbEntity
  8
Layer_1
 62
7
100
AcDbSpline
 70
8
 71
3
 72
8
 73
4
 74
0
 40
0
 40
0
 40
0
 40
0
 40
1
 40
1
 40
1
 40
1
 10
2.765028
 20
10.683755
 30
0.0
 10
2.765028
 20
10.694197
 30
0.0
 10
2.760880
 20
10.704211
 30
0.0
 10
2.753497
 20
10.711594
 30
0.0
  0
SPLINE
  5
12e
100
AcDbEntity
  8
Layer_1
 62
7
100
AcDbSpline
 70
8
 71
3
 72
8
 73
4
 74
0
 40
0
 40
0
 40
0
 40
0
 40
1
 40
1
 40
1
 40
1
 10
2.753497
 20
10.711594
 30
0.0
 10
2.746114
 20
10.718977
 30
0.0
 10
2.736100
 20
10.723125
 30
0.0
 10
2.725658
 20
10.723125
 30
0.0
  0
LWPOLYLINE
  5
12f
100
AcDbEntity
  8
Layer_1
 62
7
100
AcDbPolyline
 90
1
 70
1
 10
5.824090
 20
12.120767
 30
0.0
  0
SPLINE
  5
130
100
AcDbEntity
  8
Layer_1
 62
7
100
AcDbSpline
 70
8
 71
3
 72
8
 73
4
 74
0
 40
0
 40
0
 40
0
 40
0
 40
1
 40
1
 40
1
 40
1
 10
5.824090
 20
10.723125
 30
0.0
 10
5.808166
 20
10.723125
 30
0.0
 10
5.793811
 20
10.713533
 30
0.0
 10
5.787717
 20
10.698821
 30
0.0
  0
SPLINE
  5
131
100
AcDbEntity
  8
Layer_1
 62
7
100
AcDbSpline
 70
8
 71
3
 72
8
 73
4
 74
0
 40
0
 40
0
 40
0
 40
0
 40
1
 40
1
 40
1
 40
1
 10
5.787717
 20
10.698821
 30
0.0
 10
5.781623
 20
10.684110
 30
0.0
 10
5.784992
 20
10.667176
 30
0.0
 10
5.796251
 20
10.655916
 30
0.0
  0
SPLINE
  5
132
100
AcDbEntity
  8
Layer_1
 62
7
100
AcDbSpline
 70
8
 71
3
 72
8
 73
4
 74
0
 40
0
 40
0
 40
0
 40
0
 40
1
 40
1
 40
1
 40
1
 10
5.796251
 20
10.655916
 30
0.0
 10
5.807511
 20
10.644657
 30
0.0
 10
5.824445
 20
10.641288
 30
0.0
 10
5.839156
 20
10.647382
 30
0.0
  0
SPLINE
  5
133
100
AcDbEntity
  8
Layer_1
 62
7
100
AcDbSpline
 70
8
 71
3
 72
8
 73
4
 74
0
 40
0
 40
0
 40
0
 40
0
 40
1
 40
1
 40
1
 40
1
 10
5.839156
 20
10.647382
 30
0.0
 10
5.853868
 20
10.653476
 30
0.0
 10
5.863460
 20
10.667831
 30
0.0
 10
5.863460
 20
10.683755
 30
0.0
  0
SPLINE
  5
134
100
AcDbEntity
  8
Layer_1
 62
7
100
AcDbSpline
 70
8
 71
3
 72
8
 73
4
 74
0
 40
0
 40
0
 40
0
 40
0
 40
1
 40
1
 40
1
 40
1
 10
5.863460
 20
10.683755
 30
0.0
 10
5.863460
 20
10.694197
 30
0.0
 10
5.859312
 20
10.704211
 30
0.0
 10
5.851929
 20
10.711594
 30
0.0
  0
SPLINE
  5
135
100
AcDbEntity
  8
Layer_1
 62
7
100
AcDbSpline
 70
8
 71
3
 72
8
 73
4
 74
0
 40
0
 40
0
 40
0
 40
0
 40
1
 40
1
 40
1
 40
1
 10
5.851929
 20
10.711594
 30
0.0
 10
5.844546
 20
10.718977
 30
0.0
 10
5.834532
 20
10.723125
 30
0.0
 10
5.824090
 20
10.723125
 30
0.0
  0
LWPOLYLINE
  5
136
100
AcDbEntity
  8
Layer_1
 62
7
100
AcDbPolyline
 90
1
 70
1
 10
2.725658
 20
10.723125
 30
0.0
  0
LWPOLYLINE
  5
137
100
AcDbEntity
  8
Layer_1
 62
7
100
AcDbPolyline
 90
1
 70
1
 10
5.824090
 20
10.723125
 30
0.0
  0
SPLINE
  5
138
100
AcDbEntity
  8
Layer_1
 62
7
100
AcDbSpline
 70
8
 71
3
 72
8
 73
4
 74
0
 40
0
 40
0
 40
0
 40
0
 40
1
 40
1
 40
1
 40
1
 10
1.355909
 20
7.831140
 30
0.0
 10
1.360766
 20
7.820230
 30
0.0
 10
1.358574
 20
7.807468
 30
0.0
 10
1.350353
 20
7.798805
 30
0.0
  0
SPLINE
  5
139
100
AcDbEntity
  8
Layer_1
 62
7
100
AcDbSpline
 70
8
 71
3
 72
8
 73
4
 74
0
 40
0
 40
0
 40
0
 40
0
 40
1
 40
1
 40
1
 40
1
 10
1.350353
 20
7.798805
 30
0.0
 10
1.342132
 20
7.790142
 30
0.0
 10
1.329502
 20
7.787284
 30
0.0
 10
1.318352
 20
7.791564
 30
0.0
  0
SPLINE
  5
13a
100
AcDbEntity
  8
Layer_1
 62
7
100
AcDbSpline
 70
8
 71
3
 72
8
 73
4
 74
0
 40
0
 40
0
 40
0
 40
0
 40
1
 40
1
 40
1
 40
1
 10
1.318352
 20
7.791564
 30
0.0
 10
1.307203
 20
7.795844
 30
0.0
 10
1.299729
 20
7.806418
 30
0.0
 10
1.299417
 20
7.818357
 30
0.0
  0
SPLINE
  5
13b
100
AcDbEntity
  8
Layer_1
 62
7
100
AcDbSpline
 70
8
 71
3
 72
8
 73
4
 74
0
 40
0
 40
0
 40
0
 40
0
 40
1
 40
1
 40
1
 40
1
 10
1.299417
 20
7.818357
 30
0.0
 10
1.299104
 20
7.830296
 30
0.0
 10
1.306014
 20
7.841247
 30
0.0
 10
1.316924
 20
7.846105
 30
0.0
  0
SPLINE
  5
13c
100
AcDbEntity
  8
Layer_1
 62
7
100
AcDbSpline
 70
8
 71
3
 72
8
 73
4
 74
0
 40
0
 40
0
 40
0
 40
0
 40
1
 40
1
 40
1
 40
1
 10
1.316924
 20
7.846105
 30
0.0
 10
1.324078
 20
7.849290
 30
0.0
 10
1.332205
 20
7.849503
 30
0.0
 10
1.339516
 20
7.846696
 30
0.0
  0
SPLINE
  5
13d
100
AcDbEntity
  8
Layer_1
 62
7
100
AcDbSpline
 70
8
 71
3
 72
8
 73
4
 74
0
 40
0
 40
0
 40
0
 40
0
 40
1
 40
1
 40
1
 40
1
 10
1.339516
 20
7.846696
 30
0.0
 10
1.346827
 20
7.843890
 30
0.0
 10
1.352724
 20
7.838294
 30
0.0
 10
1.355909
 20
7.831140
 30
0.0
  0
LWPOLYLINE
  5
13e
100
AcDbEntity
  8
Layer_1
 62
7
100
AcDbPolyline
 90
4
 70
1
 10
1.378725
 20
9.156685
 30
0.0
 10
0.473213
 20
9.156685
 30
0.0
 10
0.473213
 20
7.778732
 30
0.0
 10
1.378725
 20
7.778732
 30
0.0
  0
SPLINE
  5
13f
100
AcDbEntity
  8
Layer_1
 62
7
100
AcDbSpline
 70
8
 71
3
 72
8
 73
4
 74
0
 40
0
 40
0
 40
0
 40
0
 40
1
 40
1
 40
1
 40
1
 10
0.781034
 20
9.122329
 30
0.0
 10
0.785891
 20
9.111419
 30
0.0
 10
0.783698
 20
9.098657
 30
0.0
 10
0.775477
 20
9.089994
 30
0.0
  0
SPLINE
  5
140
100
AcDbEntity
  8
Layer_1
 62
7
100
AcDbSpline
 70
8
 71
3
 72
8
 73
4
 74
0
 40
0
 40
0
 40
0
 40
0
 40
1
 40
1
 40
1
 40
1
 10
0.775477
 20
9.089994
 30
0.0
 10
0.767257
 20
9.081331
 30
0.0
 10
0.754627
 20
9.078473
 30
0.0
 10
0.743477
 20
9.082753
 30
0.0
  0
SPLINE
  5
141
100
AcDbEntity
  8
Layer_1
 62
7
100
AcDbSpline
 70
8
 71
3
 72
8
 73
4
 74
0
 40
0
 40
0
 40
0
 40
0
 40
1
 40
1
 40
1
 40
1
 10
0.743477
 20
9.082753
 30
0.0
 10
0.732328
 20
9.087033
 30
0.0
 10
0.724854
 20
9.097607
 30
0.0
 10
0.724542
 20
9.109546
 30
0.0
  0
SPLINE
  5
142
100
AcDbEntity
  8
Layer_1
 62
7
100
AcDbSpline
 70
8
 71
3
 72
8
 73
4
 74
0
 40
0
 40
0
 40
0
 40
0
 40
1
 40
1
 40
1
 40
1
 10
0.724542
 20
9.109546
 30
0.0
 10
0.724229
 20
9.121485
 30
0.0
 10
0.731139
 20
9.132436
 30
0.0
 10
0.742049
 20
9.137294
 30
0.0
  0
SPLINE
  5
143
100
AcDbEntity
  8
Layer_1
 62
7
100
AcDbSpline
 70
8
 71
3
 72
8
 73
4
 74
0
 40
0
 40
0
 40
0
 40
0
 40
1
 40
1
 40
1
 40
1
 10
0.742049
 20
9.137294
 30
0.0
 10
0.756947
 20
9.143927
 30
0.0
 10
0.774401
 20
9.137227
 30
0.0
 10
0.781034
 20
9.122329
 30
0.0
  0
LWPOLYLINE
  5
144
100
AcDbEntity
  8
Layer_1
 62
7
100
AcDbPolyline
 90
1
 70
1
 10
1.355909
 20
7.831140
 30
0.0
  0
LWPOLYLINE
  5
145
100
AcDbEntity
  8
Layer_1
 62
7
100
AcDbPolyline
 90
1
 70
1
 10
0.781034
 20
9.122329
 30
0.0
  0
SPLINE
  5
146
100
AcDbEntity
  8
Layer_1
 62
7
100
AcDbSpline
 70
8
 71
3
 72
8
 73
4
 74
0
 40
0
 40
0
 40
0
 40
0
 40
1
 40
1
 40
1
 40
1
 10
0.567210
 20
10.108424
 30
0.0
 10
0.546509
 20
10.108424
 30
0.0
 10
0.527847
 20
10.094995
 30
0.0
 10
0.519925
 20
10.074399
 30
0.0
  0
SPLINE
  5
147
100
AcDbEntity
  8
Layer_1
 62
7
100
AcDbSpline
 70
8
 71
3
 72
8
 73
4
 74
0
 40
0
 40
0
 40
0
 40
0
 40
1
 40
1
 40
1
 40
1
 10
0.519925
 20
10.074399
 30
0.0
 10
0.512003
 20
10.053803
 30
0.0
 10
0.516382
 20
10.030096
 30
0.0
 10
0.531020
 20
10.014332
 30
0.0
  0
SPLINE
  5
148
100
AcDbEntity
  8
Layer_1
 62
7
100
AcDbSpline
 70
8
 71
3
 72
8
 73
4
 74
0
 40
0
 40
0
 40
0
 40
0
 40
1
 40
1
 40
1
 40
1
 10
0.531020
 20
10.014332
 30
0.0
 10
0.545657
 20
9.998568
 30
0.0
 10
0.567671
 20
9.993853
 30
0.0
 10
0.586796
 20
10.002384
 30
0.0
  0
SPLINE
  5
149
100
AcDbEntity
  8
Layer_1
 62
7
100
AcDbSpline
 70
8
 71
3
 72
8
 73
4
 74
0
 40
0
 40
0
 40
0
 40
0
 40
1
 40
1
 40
1
 40
1
 10
0.586796
 20
10.002384
 30
0.0
 10
0.605921
 20
10.010915
 30
0.0
 10
0.618391
 20
10.031013
 30
0.0
 10
0.618391
 20
10.053306
 30
0.0
  0
SPLINE
  5
14a
100
AcDbEntity
  8
Layer_1
 62
7
100
AcDbSpline
 70
8
 71
3
 72
8
 73
4
 74
0
 40
0
 40
0
 40
0
 40
0
 40
1
 40
1
 40
1
 40
1
 10
0.618391
 20
10.053306
 30
0.0
 10
0.618391
 20
10.067925
 30
0.0
 10
0.612999
 20
10.081944
 30
0.0
 10
0.603401
 20
10.092281
 30
0.0
  0
SPLINE
  5
14b
100
AcDbEntity
  8
Layer_1
 62
7
100
AcDbSpline
 70
8
 71
3
 72
8
 73
4
 74
0
 40
0
 40
0
 40
0
 40
0
 40
1
 40
1
 40
1
 40
1
 10
0.603401
 20
10.092281
 30
0.0
 10
0.593802
 20
10.102617
 30
0.0
 10
0.580784
 20
10.108424
 30
0.0
 10
0.567210
 20
10.108424
 30
0.0
  0
LWPOLYLINE
  5
14c
100
AcDbEntity
  8
Layer_1
 62
7
100
AcDbPolyline
 90
4
 70
1
 10
0.473214
 20
10.143857
 30
0.0
 10
1.036206
 20
10.143857
 30
0.0
 10
1.036206
 20
9.332834
 30
0.0
 10
0.473214
 20
9.332834
 30
0.0
  0
SPLINE
  5
14d
100
AcDbEntity
  8
Layer_1
 62
7
100
AcDbSpline
 70
8
 71
3
 72
8
 73
4
 74
0
 40
0
 40
0
 40
0
 40
0
 40
1
 40
1
 40
1
 40
1
 10
0.567210
 20
9.478503
 30
0.0
 10
0.546509
 20
9.478503
 30
0.0
 10
0.527847
 20
9.465074
 30
0.0
 10
0.519925
 20
9.444477
 30
0.0
  0
SPLINE
  5
14e
100
AcDbEntity
  8
Layer_1
 62
7
100
AcDbSpline
 70
8
 71
3
 72
8
 73
4
 74
0
 40
0
 40
0
 40
0
 40
0
 40
1
 40
1
 40
1
 40
1
 10
0.519925
 20
9.444477
 30
0.0
 10
0.512003
 20
9.423881
 30
0.0
 10
0.516382
 20
9.400174
 30
0.0
 10
0.531020
 20
9.384410
 30
0.0
  0
SPLINE
  5
14f
100
AcDbEntity
  8
Layer_1
 62
7
100
AcDbSpline
 70
8
 71
3
 72
8
 73
4
 74
0
 40
0
 40
0
 40
0
 40
0
 40
1
 40
1
 40
1
 40
1
 10
0.531020
 20
9.384410
 30
0.0
 10
0.545657
 20
9.368646
 30
0.0
 10
0.567671
 20
9.363931
 30
0.0
 10
0.586796
 20
9.372462
 30
0.0
  0
SPLINE
  5
150
100
AcDbEntity
  8
Layer_1
 62
7
100
AcDbSpline
 70
8
 71
3
 72
8
 73
4
 74
0
 40
0
 40
0
 40
0
 40
0
 40
1
 40
1
 40
1
 40
1
 10
0.586796
 20
9.372462
 30
0.0
 10
0.605921
 20
9.380993
 30
0.0
 10
0.618391
 20
9.401091
 30
0.0
 10
0.618391
 20
9.423385
 30
0.0
  0
SPLINE
  5
151
100
AcDbEntity
  8
Layer_1
 62
7
100
AcDbSpline
 70
8
 71
3
 72
8
 73
4
 74
0
 40
0
 40
0
 40
0
 40
0
 40
1
 40
1
 40
1
 40
1
 10
0.618391
 20
9.423385
 30
0.0
 10
0.618391
 20
9.438003
 30
0.0
 10
0.612999
 20
9.452022
 30
0.0
 10
0.603401
 20
9.462359
 30
0.0
  0
SPLINE
  5
152
100
AcDbEntity
  8
Layer_1
 62
7
100
AcDbSpline
 70
8
 71
3
 72
8
 73
4
 74
0
 40
0
 40
0
 40
0
 40
0
 40
1
 40
1
 40
1
 40
1
 10
0.603401
 20
9.462359
 30
0.0
 10
0.593802
 20
9.472696
 30
0.0
 10
0.580784
 20
9.478503
 30
0.0
 10
0.567210
 20
9.478503
 30
0.0
  0
LWPOLYLINE
  5
153
100
AcDbEntity
  8
Layer_1
 62
7
100
AcDbPolyline
 90
1
 70
1
 10
0.567210
 20
10.108424
 30
0.0
  0
LWPOLYLINE
  5
154
100
AcDbEntity
  8
Layer_1
 62
7
100
AcDbPolyline
 90
1
 70
1
 10
0.567210
 20
9.478503
 30
0.0
  0
SPLINE
  5
155
100
AcDbEntity
  8
Layer_1
 62
7
100
AcDbSpline
 70
8
 71
3
 72
8
 73
4
 74
0
 40
0
 40
0
 40
0
 40
0
 40
1
 40
1
 40
1
 40
1
 10
0.569195
 20
10.503544
 30
0.0
 10
0.546902
 20
10.503544
 30
0.0
 10
0.526804
 20
10.490115
 30
0.0
 10
0.518273
 20
10.469519
 30
0.0
  0
SPLINE
  5
156
100
AcDbEntity
  8
Layer_1
 62
7
100
AcDbSpline
 70
8
 71
3
 72
8
 73
4
 74
0
 40
0
 40
0
 40
0
 40
0
 40
1
 40
1
 40
1
 40
1
 10
0.518273
 20
10.469519
 30
0.0
 10
0.509741
 20
10.448923
 30
0.0
 10
0.514457
 20
10.425216
 30
0.0
 10
0.530221
 20
10.409452
 30
0.0
  0
SPLINE
  5
157
100
AcDbEntity
  8
Layer_1
 62
7
100
AcDbSpline
 70
8
 71
3
 72
8
 73
4
 74
0
 40
0
 40
0
 40
0
 40
0
 40
1
 40
1
 40
1
 40
1
 10
0.530221
 20
10.409452
 30
0.0
 10
0.545984
 20
10.393688
 30
0.0
 10
0.569692
 20
10.388973
 30
0.0
 10
0.590288
 20
10.397504
 30
0.0
  0
SPLINE
  5
158
100
AcDbEntity
  8
Layer_1
 62
7
100
AcDbSpline
 70
8
 71
3
 72
8
 73
4
 74
0
 40
0
 40
0
 40
0
 40
0
 40
1
 40
1
 40
1
 40
1
 10
0.590288
 20
10.397504
 30
0.0
 10
0.610884
 20
10.406035
 30
0.0
 10
0.624313
 20
10.426133
 30
0.0
 10
0.624313
 20
10.448426
 30
0.0
  0
SPLINE
  5
159
100
AcDbEntity
  8
Layer_1
 62
7
100
AcDbSpline
 70
8
 71
3
 72
8
 73
4
 74
0
 40
0
 40
0
 40
0
 40
0
 40
1
 40
1
 40
1
 40
1
 10
0.624313
 20
10.448426
 30
0.0
 10
0.624313
 20
10.463045
 30
0.0
 10
0.618506
 20
10.477064
 30
0.0
 10
0.608169
 20
10.487401
 30
0.0
  0
SPLINE
  5
15a
100
AcDbEntity
  8
Layer_1
 62
7
100
AcDbSpline
 70
8
 71
3
 72
8
 73
4
 74
0
 40
0
 40
0
 40
0
 40
0
 40
1
 40
1
 40
1
 40
1
 10
0.608169
 20
10.487401
 30
0.0
 10
0.597833
 20
10.497737
 30
0.0
 10
0.583813
 20
10.503544
 30
0.0
 10
0.569195
 20
10.503544
 30
0.0
  0
LWPOLYLINE
  5
15b
100
AcDbEntity
  8
Layer_1
 62
7
100
AcDbPolyline
 90
4
 70
1
 10
0.473213
 20
10.760182
 30
0.0
 10
0.981087
 20
10.760182
 30
0.0
 10
0.981087
 20
10.350733
 30
0.0
 10
0.473213
 20
10.350733
 30
0.0
  0
LWPOLYLINE
  5
15c
100
AcDbEntity
  8
Layer_1
 62
7
100
AcDbPolyline
 90
1
 70
1
 10
0.569195
 20
10.503544
 30
0.0
  0
LWPOLYLINE
  5
15d
100
AcDbEntity
  8
Layer_1
 62
7
100
AcDbPolyline
 90
4
 70
1
 10
0.327378
 20
13.338465
 30
0.0
 10
1.941552
 20
13.338465
 30
0.0
 10
1.941552
 20
11.724292
 30
0.0
 10
0.327378
 20
11.724292
 30
0.0
  0
SPLINE
  5
15e
100
AcDbEntity
  8
Layer_1
 62
7
100
AcDbSpline
 70
8
 71
3
 72
8
 73
4
 74
0
 40
0
 40
0
 40
0
 40
0
 40
1
 40
1
 40
1
 40
1
 10
0.759672
 20
11.077626
 30
0.0
 10
0.743748
 20
11.077626
 30
0.0
 10
0.729392
 20
11.068034
 30
0.0
 10
0.723299
 20
11.053322
 30
0.0
  0
SPLINE
  5
15f
100
AcDbEntity
  8
Layer_1
 62
7
100
AcDbSpline
 70
8
 71
3
 72
8
 73
4
 74
0
 40
0
 40
0
 40
0
 40
0
 40
1
 40
1
 40
1
 40
1
 10
0.723299
 20
11.053322
 30
0.0
 10
0.717205
 20
11.038611
 30
0.0
 10
0.720573
 20
11.021677
 30
0.0
 10
0.731833
 20
11.010417
 30
0.0
  0
SPLINE
  5
160
100
AcDbEntity
  8
Layer_1
 62
7
100
AcDbSpline
 70
8
 71
3
 72
8
 73
4
 74
0
 40
0
 40
0
 40
0
 40
0
 40
1
 40
1
 40
1
 40
1
 10
0.731833
 20
11.010417
 30
0.0
 10
0.743093
 20
10.999157
 30
0.0
 10
0.760027
 20
10.995789
 30
0.0
 10
0.774738
 20
11.001883
 30
0.0
  0
SPLINE
  5
161
100
AcDbEntity
  8
Layer_1
 62
7
100
AcDbSpline
 70
8
 71
3
 72
8
 73
4
 74
0
 40
0
 40
0
 40
0
 40
0
 40
1
 40
1
 40
1
 40
1
 10
0.774738
 20
11.001883
 30
0.0
 10
0.789450
 20
11.007977
 30
0.0
 10
0.799042
 20
11.022332
 30
0.0
 10
0.799042
 20
11.038256
 30
0.0
  0
SPLINE
  5
162
100
AcDbEntity
  8
Layer_1
 62
7
100
AcDbSpline
 70
8
 71
3
 72
8
 73
4
 74
0
 40
0
 40
0
 40
0
 40
0
 40
1
 40
1
 40
1
 40
1
 10
0.799042
 20
11.038256
 30
0.0
 10
0.799042
 20
11.048698
 30
0.0
 10
0.794894
 20
11.058712
 30
0.0
 10
0.787511
 20
11.066095
 30
0.0
  0
SPLINE
  5
163
100
AcDbEntity
  8
Layer_1
 62
7
100
AcDbSpline
 70
8
 71
3
 72
8
 73
4
 74
0
 40
0
 40
0
 40
0
 40
0
 40
1
 40
1
 40
1
 40
1
 10
0.787511
 20
11.066095
 30
0.0
 10
0.780127
 20
11.073478
 30
0.0
 10
0.770114
 20
11.077626
 30
0.0
 10
0.759672
 20
11.077626
 30
0.0
  0
LWPOLYLINE
  5
164
100
AcDbEntity
  8
Layer_1
 62
7
100
AcDbPolyline
 90
4
 70
1
 10
0.644345
 20
11.575659
 30
0.0
 10
1.195526
 20
11.575659
 30
0.0
 10
1.195526
 20
10.933926
 30
0.0
 10
0.644345
 20
10.933926
 30
0.0
  0
SPLINE
  5
165
100
AcDbEntity
  8
Layer_1
 62
7
100
AcDbSpline
 70
8
 71
3
 72
8
 73
4
 74
0
 40
0
 40
0
 40
0
 40
0
 40
1
 40
1
 40
1
 40
1
 10
0.759672
 20
11.510699
 30
0.0
 10
0.743748
 20
11.510699
 30
0.0
 10
0.729392
 20
11.501107
 30
0.0
 10
0.723299
 20
11.486395
 30
0.0
  0
SPLINE
  5
166
100
AcDbEntity
  8
Layer_1
 62
7
100
AcDbSpline
 70
8
 71
3
 72
8
 73
4
 74
0
 40
0
 40
0
 40
0
 40
0
 40
1
 40
1
 40
1
 40
1
 10
0.723299
 20
11.486395
 30
0.0
 10
0.717205
 20
11.471684
 30
0.0
 10
0.720573
 20
11.454750
 30
0.0
 10
0.731833
 20
11.443490
 30
0.0
  0
SPLINE
  5
167
100
AcDbEntity
  8
Layer_1
 62
7
100
AcDbSpline
 70
8
 71
3
 72
8
 73
4
 74
0
 40
0
 40
0
 40
0
 40
0
 40
1
 40
1
 40
1
 40
1
 10
0.731833
 20
11.443490
 30
0.0
 10
0.743093
 20
11.432230
 30
0.0
 10
0.760027
 20
11.428862
 30
0.0
 10
0.774738
 20
11.434956
 30
0.0
  0
SPLINE
  5
168
100
AcDbEntity
  8
Layer_1
 62
7
100
AcDbSpline
 70
8
 71
3
 72
8
 73
4
 74
0
 40
0
 40
0
 40
0
 40
0
 40
1
 40
1
 40
1
 40
1
 10
0.774738
 20
11.434956
 30
0.0
 10
0.789450
 20
11.441050
 30
0.0
 10
0.799042
 20
11.455405
 30
0.0
 10
0.799042
 20
11.471329
 30
0.0
  0
SPLINE
  5
169
100
AcDbEntity
  8
Layer_1
 62
7
100
AcDbSpline
 70
8
 71
3
 72
8
 73
4
 74
0
 40
0
 40
0
 40
0
 40
0
 40
1
 40
1
 40
1
 40
1
 10
0.799042
 20
11.471329
 30
0.0
 10
0.799042
 20
11.481771
 30
0.0
 10
0.794894
 20
11.491785
 30
0.0
 10
0.787511
 20
11.499168
 30
0.0
  0
SPLINE
  5
16a
100
AcDbEntity
  8
Layer_1
 62
7
100
AcDbSpline
 70
8
 71
3
 72
8
 73
4
 74
0
 40
0
 40
0
 40
0
 40
0
 40
1
 40
1
 40
1
 40
1
 10
0.787511
 20
11.499168
 30
0.0
 10
0.780127
 20
11.506551
 30
0.0
 10
0.770114
 20
11.510699
 30
0.0
 10
0.759672
 20
11.510699
 30
0.0
  0
LWPOLYLINE
  5
16b
100
AcDbEntity
  8
Layer_1
 62
7
100
AcDbPolyline
 90
1
 70
1
 10
0.759672
 20
11.077626
 30
0.0
  0
LWPOLYLINE
  5
16c
100
AcDbEntity
  8
Layer_1
 62
7
100
AcDbPolyline
 90
1
 70
1
 10
0.759672
 20
11.510699
 30
0.0
  0
LWPOLYLINE
  5
16d
100
AcDbEntity
  8
Layer_1
 62
7
100
AcDbPolyline
 90
4
 70
1
 10
0.473214
 20
11.351519
 30
0.0
 10
0.636904
 20
11.351519
 30
0.0
 10
0.636904
 20
11.158066
 30
0.0
 10
0.473214
 20
11.158066
 30
0.0
  0
LWPOLYLINE
  5
16e
100
AcDbEntity
  8
Layer_1
 62
7
100
AcDbPolyline
 90
4
 70
1
 10
3.650298
 20
13.338466
 30
0.0
 10
4.386518
 20
13.338466
 30
0.0
 10
4.386518
 20
12.866025
 30
0.0
 10
3.650298
 20
12.866025
 30
0.0
  0
LWPOLYLINE
  5
16f
100
AcDbEntity
  8
Layer_1
 62
7
100
AcDbPolyline
 90
4
 70
1
 10
4.893753
 20
12.682298
 30
0.0
 10
4.893753
 20
13.505132
 30
0.0
 10
5.818950
 20
13.505132
 30
0.0
 10
5.818950
 20
12.682298
 30
0.0
  0
SPLINE
  5
170
100
AcDbEntity
  8
Layer_1
 62
7
100
AcDbSpline
 70
8
 71
3
 72
8
 73
4
 74
0
 40
0
 40
0
 40
0
 40
0
 40
1
 40
1
 40
1
 40
1
 10
0.274248
 20
13.549462
 30
0.0
 10
0.250363
 20
13.549462
 30
0.0
 10
0.228829
 20
13.535074
 30
0.0
 10
0.219689
 20
13.513006
 30
0.0
  0
SPLINE
  5
171
100
AcDbEntity
  8
Layer_1
 62
7
100
AcDbSpline
 70
8
 71
3
 72
8
 73
4
 74
0
 40
0
 40
0
 40
0
 40
0
 40
1
 40
1
 40
1
 40
1
 10
0.219689
 20
13.513006
 30
0.0
 10
0.210548
 20
13.490939
 30
0.0
 10
0.215600
 20
13.465538
 30
0.0
 10
0.232490
 20
13.448649
 30
0.0
  0
SPLINE
  5
172
100
AcDbEntity
  8
Layer_1
 62
7
100
AcDbSpline
 70
8
 71
3
 72
8
 73
4
 74
0
 40
0
 40
0
 40
0
 40
0
 40
1
 40
1
 40
1
 40
1
 10
0.232490
 20
13.448649
 30
0.0
 10
0.249380
 20
13.431759
 30
0.0
 10
0.274780
 20
13.426707
 30
0.0
 10
0.296848
 20
13.435847
 30
0.0
  0
SPLINE
  5
173
100
AcDbEntity
  8
Layer_1
 62
7
100
AcDbSpline
 70
8
 71
3
 72
8
 73
4
 74
0
 40
0
 40
0
 40
0
 40
0
 40
1
 40
1
 40
1
 40
1
 10
0.296848
 20
13.435847
 30
0.0
 10
0.318915
 20
13.444988
 30
0.0
 10
0.333303
 20
13.466521
 30
0.0
 10
0.333303
 20
13.490407
 30
0.0
  0
SPLINE
  5
174
100
AcDbEntity
  8
Layer_1
 62
7
100
AcDbSpline
 70
8
 71
3
 72
8
 73
4
 74
0
 40
0
 40
0
 40
0
 40
0
 40
1
 40
1
 40
1
 40
1
 10
0.333303
 20
13.490407
 30
0.0
 10
0.333303
 20
13.523022
 30
0.0
 10
0.306864
 20
13.549462
 30
0.0
 10
0.274248
 20
13.549462
 30
0.0
  0
LWPOLYLINE
  5
175
100
AcDbEntity
  8
Layer_1
 62
7
100
AcDbPolyline
 90
4
 70
1
 10
0.077381
 20
13.687266
 30
0.0
 10
6.376593
 20
13.687266
 30
0.0
 10
6.376593
 20
7.388053
 30
0.0
 10
0.077381
 20
7.388053
 30
0.0
  0
SPLINE
  5
176
100
AcDbEntity
  8
Layer_1
 62
7
100
AcDbSpline
 70
8
 71
3
 72
8
 73
4
 74
0
 40
0
 40
0
 40
0
 40
0
 40
1
 40
1
 40
1
 40
1
 10
6.179743
 20
13.549462
 30
0.0
 10
6.155857
 20
13.549462
 30
0.0
 10
6.134324
 20
13.535074
 30
0.0
 10
6.125183
 20
13.513006
 30
0.0
  0
SPLINE
  5
177
100
AcDbEntity
  8
Layer_1
 62
7
100
AcDbSpline
 70
8
 71
3
 72
8
 73
4
 74
0
 40
0
 40
0
 40
0
 40
0
 40
1
 40
1
 40
1
 40
1
 10
6.125183
 20
13.513006
 30
0.0
 10
6.116042
 20
13.490939
 30
0.0
 10
6.121095
 20
13.465538
 30
0.0
 10
6.137985
 20
13.448649
 30
0.0
  0
SPLINE
  5
178
100
AcDbEntity
  8
Layer_1
 62
7
100
AcDbSpline
 70
8
 71
3
 72
8
 73
4
 74
0
 40
0
 40
0
 40
0
 40
0
 40
1
 40
1
 40
1
 40
1
 10
6.137985
 20
13.448649
 30
0.0
 10
6.154874
 20
13.431759
 30
0.0
 10
6.180275
 20
13.426707
 30
0.0
 10
6.202342
 20
13.435847
 30
0.0
  0
SPLINE
  5
179
100
AcDbEntity
  8
Layer_1
 62
7
100
AcDbSpline
 70
8
 71
3
 72
8
 73
4
 74
0
 40
0
 40
0
 40
0
 40
0
 40
1
 40
1
 40
1
 40
1
 10
6.202342
 20
13.435847
 30
0.0
 10
6.224410
 20
13.444988
 30
0.0
 10
6.238798
 20
13.466521
 30
0.0
 10
6.238798
 20
13.490407
 30
0.0
  0
SPLINE
  5
17a
100
AcDbEntity
  8
Layer_1
 62
7
100
AcDbSpline
 70
8
 71
3
 72
8
 73
4
 74
0
 40
0
 40
0
 40
0
 40
0
 40
1
 40
1
 40
1
 40
1
 10
6.238798
 20
13.490407
 30
0.0
 10
6.238798
 20
13.506069
 30
0.0
 10
6.232576
 20
13.521090
 30
0.0
 10
6.221501
 20
13.532165
 30
0.0
  0
SPLINE
  5
17b
100
AcDbEntity
  8
Layer_1
 62
7
100
AcDbSpline
 70
8
 71
3
 72
8
 73
4
 74
0
 40
0
 40
0
 40
0
 40
0
 40
1
 40
1
 40
1
 40
1
 10
6.221501
 20
13.532165
 30
0.0
 10
6.210426
 20
13.543240
 30
0.0
 10
6.195405
 20
13.549462
 30
0.0
 10
6.179743
 20
13.549462
 30
0.0
  0
LWPOLYLINE
  5
17c
100
AcDbEntity
  8
Layer_1
 62
7
100
AcDbPolyline
 90
1
 70
1
 10
0.274248
 20
13.549462
 30
0.0
  0
SPLINE
  5
17d
100
AcDbEntity
  8
Layer_1
 62
7
100
AcDbSpline
 70
8
 71
3
 72
8
 73
4
 74
0
 40
0
 40
0
 40
0
 40
0
 40
1
 40
1
 40
1
 40
1
 10
6.179743
 20
7.643967
 30
0.0
 10
6.155857
 20
7.643967
 30
0.0
 10
6.134324
 20
7.629578
 30
0.0
 10
6.125183
 20
7.607511
 30
0.0
  0
SPLINE
  5
17e
100
AcDbEntity
  8
Layer_1
 62
7
100
AcDbSpline
 70
8
 71
3
 72
8
 73
4
 74
0
 40
0
 40
0
 40
0
 40
0
 40
1
 40
1
 40
1
 40
1
 10
6.125183
 20
7.607511
 30
0.0
 10
6.116042
 20
7.585443
 30
0.0
 10
6.121095
 20
7.560043
 30
0.0
 10
6.137985
 20
7.543153
 30
0.0
  0
SPLINE
  5
17f
100
AcDbEntity
  8
Layer_1
 62
7
100
AcDbSpline
 70
8
 71
3
 72
8
 73
4
 74
0
 40
0
 40
0
 40
0
 40
0
 40
1
 40
1
 40
1
 40
1
 10
6.137985
 20
7.543153
 30
0.0
 10
6.154874
 20
7.526263
 30
0.0
 10
6.180275
 20
7.521211
 30
0.0
 10
6.202342
 20
7.530352
 30
0.0
  0
SPLINE
  5
180
100
AcDbEntity
  8
Layer_1
 62
7
100
AcDbSpline
 70
8
 71
3
 72
8
 73
4
 74
0
 40
0
 40
0
 40
0
 40
0
 40
1
 40
1
 40
1
 40
1
 10
6.202342
 20
7.530352
 30
0.0
 10
6.224410
 20
7.539492
 30
0.0
 10
6.238798
 20
7.561026
 30
0.0
 10
6.238798
 20
7.584911
 30
0.0
  0
SPLINE
  5
181
100
AcDbEntity
  8
Layer_1
 62
7
100
AcDbSpline
 70
8
 71
3
 72
8
 73
4
 74
0
 40
0
 40
0
 40
0
 40
0
 40
1
 40
1
 40
1
 40
1
 10
6.238798
 20
7.584911
 30
0.0
 10
6.238798
 20
7.600574
 30
0.0
 10
6.232576
 20
7.615595
 30
0.0
 10
6.221501
 20
7.626670
 30
0.0
  0
SPLINE
  5
182
100
AcDbEntity
  8
Layer_1
 62
7
100
AcDbSpline
 70
8
 71
3
 72
8
 73
4
 74
0
 40
0
 40
0
 40
0
 40
0
 40
1
 40
1
 40
1
 40
1
 10
6.221501
 20
7.626670
 30
0.0
 10
6.210426
 20
7.637745
 30
0.0
 10
6.195405
 20
7.643967
 30
0.0
 10
6.179743
 20
7.643967
 30
0.0
  0
LWPOLYLINE
  5
183
100
AcDbEntity
  8
Layer_1
 62
7
100
AcDbPolyline
 90
1
 70
1
 10
6.179743
 20
13.549462
 30
0.0
  0
SPLINE
  5
184
100
AcDbEntity
  8
Layer_1
 62
7
100
AcDbSpline
 70
8
 71
3
 72
8
 73
4
 74
0
 40
0
 40
0
 40
0
 40
0
 40
1
 40
1
 40
1
 40
1
 10
0.274231
 20
7.643967
 30
0.0
 10
0.250345
 20
7.643967
 30
0.0
 10
0.228811
 20
7.629578
 30
0.0
 10
0.219671
 20
7.607511
 30
0.0
  0
SPLINE
  5
185
100
AcDbEntity
  8
Layer_1
 62
7
100
AcDbSpline
 70
8
 71
3
 72
8
 73
4
 74
0
 40
0
 40
0
 40
0
 40
0
 40
1
 40
1
 40
1
 40
1
 10
0.219671
 20
7.607511
 30
0.0
 10
0.210530
 20
7.585443
 30
0.0
 10
0.215583
 20
7.560043
 30
0.0
 10
0.232472
 20
7.543153
 30
0.0
  0
SPLINE
  5
186
100
AcDbEntity
  8
Layer_1
 62
7
100
AcDbSpline
 70
8
 71
3
 72
8
 73
4
 74
0
 40
0
 40
0
 40
0
 40
0
 40
1
 40
1
 40
1
 40
1
 10
0.232472
 20
7.543153
 30
0.0
 10
0.249362
 20
7.526263
 30
0.0
 10
0.274763
 20
7.521211
 30
0.0
 10
0.296830
 20
7.530352
 30
0.0
  0
SPLINE
  5
187
100
AcDbEntity
  8
Layer_1
 62
7
100
AcDbSpline
 70
8
 71
3
 72
8
 73
4
 74
0
 40
0
 40
0
 40
0
 40
0
 40
1
 40
1
 40
1
 40
1
 10
0.296830
 20
7.530352
 30
0.0
 10
0.318897
 20
7.539492
 30
0.0
 10
0.333286
 20
7.561026
 30
0.0
 10
0.333286
 20
7.584911
 30
0.0
  0
SPLINE
  5
188
100
AcDbEntity
  8
Layer_1
 62
7
100
AcDbSpline
 70
8
 71
3
 72
8
 73
4
 74
0
 40
0
 40
0
 40
0
 40
0
 40
1
 40
1
 40
1
 40
1
 10
0.333286
 20
7.584911
 30
0.0
 10
0.333286
 20
7.600574
 30
0.0
 10
0.327064
 20
7.615595
 30
0.0
 10
0.315989
 20
7.626670
 30
0.0
  0
SPLINE
  5
189
100
AcDbEntity
  8
Layer_1
 62
7
100
AcDbSpline
 70
8
 71
3
 72
8
 73
4
 74
0
 40
0
 40
0
 40
0
 40
0
 40
1
 40
1
 40
1
 40
1
 10
0.315989
 20
7.626670
 30
0.0
 10
0.304914
 20
7.637745
 30
0.0
 10
0.289893
 20
7.643967
 30
0.0
 10
0.274231
 20
7.643967
 30
0.0
  0
LWPOLYLINE
  5
18a
100
AcDbEntity
  8
Layer_1
 62
7
100
AcDbPolyline
 90
1
 70
1
 10
6.179743
 20
7.643967
 30
0.0
  0
SPLINE
  5
18b
100
AcDbEntity
  8
Layer_1
 62
7
100
AcDbSpline
 70
8
 71
3
 72
8
 73
4
 74
0
 40
0
 40
0
 40
0
 40
0
 40
1
 40
1
 40
1
 40
1
 10
4.041246
 20
6.681211
 30
0.0
 10
4.017360
 20
6.681211
 30
0.0
 10
3.995826
 20
6.666823
 30
0.0
 10
3.986686
 20
6.644756
 30
0.0
  0
SPLINE
  5
18c
100
AcDbEntity
  8
Layer_1
 62
7
100
AcDbSpline
 70
8
 71
3
 72
8
 73
4
 74
0
 40
0
 40
0
 40
0
 40
0
 40
1
 40
1
 40
1
 40
1
 10
3.986686
 20
6.644756
 30
0.0
 10
3.977545
 20
6.622688
 30
0.0
 10
3.982598
 20
6.597288
 30
0.0
 10
3.999487
 20
6.580398
 30
0.0
  0
SPLINE
  5
18d
100
AcDbEntity
  8
Layer_1
 62
7
100
AcDbSpline
 70
8
 71
3
 72
8
 73
4
 74
0
 40
0
 40
0
 40
0
 40
0
 40
1
 40
1
 40
1
 40
1
 10
3.999487
 20
6.580398
 30
0.0
 10
4.016377
 20
6.563508
 30
0.0
 10
4.041778
 20
6.558456
 30
0.0
 10
4.063845
 20
6.567596
 30
0.0
  0
SPLINE
  5
18e
100
AcDbEntity
  8
Layer_1
 62
7
100
AcDbSpline
 70
8
 71
3
 72
8
 73
4
 74
0
 40
0
 40
0
 40
0
 40
0
 40
1
 40
1
 40
1
 40
1
 10
4.063845
 20
6.567596
 30
0.0
 10
4.085912
 20
6.576737
 30
0.0
 10
4.100301
 20
6.598271
 30
0.0
 10
4.100301
 20
6.622156
 30
0.0
  0
SPLINE
  5
18f
100
AcDbEntity
  8
Layer_1
 62
7
100
AcDbSpline
 70
8
 71
3
 72
8
 73
4
 74
0
 40
0
 40
0
 40
0
 40
0
 40
1
 40
1
 40
1
 40
1
 10
4.100301
 20
6.622156
 30
0.0
 10
4.100301
 20
6.637819
 30
0.0
 10
4.094079
 20
6.652840
 30
0.0
 10
4.083004
 20
6.663914
 30
0.0
  0
SPLINE
  5
190
100
AcDbEntity
  8
Layer_1
 62
7
100
AcDbSpline
 70
8
 71
3
 72
8
 73
4
 74
0
 40
0
 40
0
 40
0
 40
0
 40
1
 40
1
 40
1
 40
1
 10
4.083004
 20
6.663914
 30
0.0
 10
4.071929
 20
6.674989
 30
0.0
 10
4.056908
 20
6.681211
 30
0.0
 10
4.041246
 20
6.681211
 30
0.0
  0
LWPOLYLINE
  5
191
100
AcDbEntity
  8
Layer_1
 62
7
100
AcDbPolyline
 90
1
 70
1
 10
0.274231
 20
7.643967
 30
0.0
  0
SPLINE
  5
192
100
AcDbEntity
  8
Layer_1
 62
7
100
AcDbSpline
 70
8
 71
3
 72
8
 73
4
 74
0
 40
0
 40
0
 40
0
 40
0
 40
1
 40
1
 40
1
 40
1
 10
4.041246
 20
6.431988
 30
0.0
 10
4.017360
 20
6.431988
 30
0.0
 10
3.995826
 20
6.417600
 30
0.0
 10
3.986686
 20
6.395532
 30
0.0
  0
SPLINE
  5
193
100
AcDbEntity
  8
Layer_1
 62
7
100
AcDbSpline
 70
8
 71
3
 72
8
 73
4
 74
0
 40
0
 40
0
 40
0
 40
0
 40
1
 40
1
 40
1
 40
1
 10
3.986686
 20
6.395532
 30
0.0
 10
3.977545
 20
6.373465
 30
0.0
 10
3.982598
 20
6.348064
 30
0.0
 10
3.999487
 20
6.331175
 30
0.0
  0
SPLINE
  5
194
100
AcDbEntity
  8
Layer_1
 62
7
100
AcDbSpline
 70
8
 71
3
 72
8
 73
4
 74
0
 40
0
 40
0
 40
0
 40
0
 40
1
 40
1
 40
1
 40
1
 10
3.999487
 20
6.331175
 30
0.0
 10
4.016377
 20
6.314285
 30
0.0
 10
4.041778
 20
6.309233
 30
0.0
 10
4.063845
 20
6.318373
 30
0.0
  0
SPLINE
  5
195
100
AcDbEntity
  8
Layer_1
 62
7
100
AcDbSpline
 70
8
 71
3
 72
8
 73
4
 74
0
 40
0
 40
0
 40
0
 40
0
 40
1
 40
1
 40
1
 40
1
 10
4.063845
 20
6.318373
 30
0.0
 10
4.085912
 20
6.327514
 30
0.0
 10
4.100301
 20
6.349048
 30
0.0
 10
4.100301
 20
6.372933
 30
0.0
  0
SPLINE
  5
196
100
AcDbEntity
  8
Layer_1
 62
7
100
AcDbSpline
 70
8
 71
3
 72
8
 73
4
 74
0
 40
0
 40
0
 40
0
 40
0
 40
1
 40
1
 40
1
 40
1
 10
4.100301
 20
6.372933
 30
0.0
 10
4.100301
 20
6.388595
 30
0.0
 10
4.094079
 20
6.403616
 30
0.0
 10
4.083004
 20
6.414691
 30
0.0
  0
SPLINE
  5
197
100
AcDbEntity
  8
Layer_1
 62
7
100
AcDbSpline
 70
8
 71
3
 72
8
 73
4
 74
0
 40
0
 40
0
 40
0
 40
0
 40
1
 40
1
 40
1
 40
1
 10
4.083004
 20
6.414691
 30
0.0
 10
4.071929
 20
6.425766
 30
0.0
 10
4.056908
 20
6.431988
 30
0.0
 10
4.041246
 20
6.431988
 30
0.0
  0
LWPOLYLINE
  5
198
100
AcDbEntity
  8
Layer_1
 62
7
100
AcDbPolyline
 90
1
 70
1
 10
4.041246
 20
6.681211
 30
0.0
  0
SPLINE
  5
199
100
AcDbEntity
  8
Layer_1
 62
7
100
AcDbSpline
 70
8
 71
3
 72
8
 73
4
 74
0
 40
0
 40
0
 40
0
 40
0
 40
1
 40
1
 40
1
 40
1
 10
4.877100
 20
7.040200
 30
0.0
 10
4.877100
 20
7.013129
 30
0.0
 10
4.893407
 20
6.988725
 30
0.0
 10
4.918417
 20
6.978365
 30
0.0
  0
SPLINE
  5
19a
100
AcDbEntity
  8
Layer_1
 62
7
100
AcDbSpline
 70
8
 71
3
 72
8
 73
4
 74
0
 40
0
 40
0
 40
0
 40
0
 40
1
 40
1
 40
1
 40
1
 10
4.918417
 20
6.978365
 30
0.0
 10
4.943426
 20
6.968006
 30
0.0
 10
4.972214
 20
6.973732
 30
0.0
 10
4.991355
 20
6.992874
 30
0.0
  0
SPLINE
  5
19b
100
AcDbEntity
  8
Layer_1
 62
7
100
AcDbSpline
 70
8
 71
3
 72
8
 73
4
 74
0
 40
0
 40
0
 40
0
 40
0
 40
1
 40
1
 40
1
 40
1
 10
4.991355
 20
6.992874
 30
0.0
 10
5.010497
 20
7.012015
 30
0.0
 10
5.016223
 20
7.040803
 30
0.0
 10
5.005864
 20
7.065812
 30
0.0
  0
SPLINE
  5
19c
100
AcDbEntity
  8
Layer_1
 62
7
100
AcDbSpline
 70
8
 71
3
 72
8
 73
4
 74
0
 40
0
 40
0
 40
0
 40
0
 40
1
 40
1
 40
1
 40
1
 10
5.005864
 20
7.065812
 30
0.0
 10
4.995504
 20
7.090822
 30
0.0
 10
4.971100
 20
7.107129
 30
0.0
 10
4.944029
 20
7.107129
 30
0.0
  0
SPLINE
  5
19d
100
AcDbEntity
  8
Layer_1
 62
7
100
AcDbSpline
 70
8
 71
3
 72
8
 73
4
 74
0
 40
0
 40
0
 40
0
 40
0
 40
1
 40
1
 40
1
 40
1
 10
4.944029
 20
7.107129
 30
0.0
 10
4.926279
 20
7.107129
 30
0.0
 10
4.909255
 20
7.100077
 30
0.0
 10
4.896703
 20
7.087526
 30
0.0
  0
SPLINE
  5
19e
100
AcDbEntity
  8
Layer_1
 62
7
100
AcDbSpline
 70
8
 71
3
 72
8
 73
4
 74
0
 40
0
 40
0
 40
0
 40
0
 40
1
 40
1
 40
1
 40
1
 10
4.896703
 20
7.087526
 30
0.0
 10
4.884152
 20
7.074974
 30
0.0
 10
4.877100
 20
7.057950
 30
0.0
 10
4.877100
 20
7.040200
 30
0.0
  0
LWPOLYLINE
  5
19f
100
AcDbEntity
  8
Layer_1
 62
7
100
AcDbPolyline
 90
1
 70
1
 10
4.041246
 20
6.431988
 30
0.0
  0
SPLINE
  5
1a0
100
AcDbEntity
  8
Layer_1
 62
7
100
AcDbSpline
 70
8
 71
3
 72
8
 73
4
 74
0
 40
0
 40
0
 40
0
 40
0
 40
1
 40
1
 40
1
 40
1
 10
5.575913
 20
7.040200
 30
0.0
 10
5.575913
 20
7.013129
 30
0.0
 10
5.592220
 20
6.988725
 30
0.0
 10
5.617229
 20
6.978365
 30
0.0
  0
SPLINE
  5
1a1
100
AcDbEntity
  8
Layer_1
 62
7
100
AcDbSpline
 70
8
 71
3
 72
8
 73
4
 74
0
 40
0
 40
0
 40
0
 40
0
 40
1
 40
1
 40
1
 40
1
 10
5.617229
 20
6.978365
 30
0.0
 10
5.642239
 20
6.968006
 30
0.0
 10
5.671027
 20
6.973732
 30
0.0
 10
5.690168
 20
6.992874
 30
0.0
  0
SPLINE
  5
1a2
100
AcDbEntity
  8
Layer_1
 62
7
100
AcDbSpline
 70
8
 71
3
 72
8
 73
4
 74
0
 40
0
 40
0
 40
0
 40
0
 40
1
 40
1
 40
1
 40
1
 10
5.690168
 20
6.992874
 30
0.0
 10
5.709310
 20
7.012015
 30
0.0
 10
5.715036
 20
7.040803
 30
0.0
 10
5.704677
 20
7.065812
 30
0.0
  0
SPLINE
  5
1a3
100
AcDbEntity
  8
Layer_1
 62
7
100
AcDbSpline
 70
8
 71
3
 72
8
 73
4
 74
0
 40
0
 40
0
 40
0
 40
0
 40
1
 40
1
 40
1
 40
1
 10
5.704677
 20
7.065812
 30
0.0
 10
5.694317
 20
7.090822
 30
0.0
 10
5.669912
 20
7.107129
 30
0.0
 10
5.642842
 20
7.107129
 30
0.0
  0
SPLINE
  5
1a4
100
AcDbEntity
  8
Layer_1
 62
7
100
AcDbSpline
 70
8
 71
3
 72
8
 73
4
 74
0
 40
0
 40
0
 40
0
 40
0
 40
1
 40
1
 40
1
 40
1
 10
5.642842
 20
7.107129
 30
0.0
 10
5.625091
 20
7.107129
 30
0.0
 10
5.608068
 20
7.100077
 30
0.0
 10
5.595516
 20
7.087526
 30
0.0
  0
SPLINE
  5
1a5
100
AcDbEntity
  8
Layer_1
 62
7
100
AcDbSpline
 70
8
 71
3
 72
8
 73
4
 74
0
 40
0
 40
0
 40
0
 40
0
 40
1
 40
1
 40
1
 40
1
 10
5.595516
 20
7.087526
 30
0.0
 10
5.582964
 20
7.074974
 30
0.0
 10
5.575913
 20
7.057950
 30
0.0
 10
5.575913
 20
7.040200
 30
0.0
  0
LWPOLYLINE
  5
1a6
100
AcDbEntity
  8
Layer_1
 62
7
100
AcDbPolyline
 90
1
 70
1
 10
4.877100
 20
7.040200
 30
0.0
  0
SPLINE
  5
1a7
100
AcDbEntity
  8
Layer_1
 62
7
100
AcDbSpline
 70
8
 71
3
 72
8
 73
4
 74
0
 40
0
 40
0
 40
0
 40
0
 40
1
 40
1
 40
1
 40
1
 10
4.877100
 20
6.437837
 30
0.0
 10
4.877100
 20
6.410767
 30
0.0
 10
4.893407
 20
6.386362
 30
0.0
 10
4.918417
 20
6.376003
 30
0.0
  0
SPLINE
  5
1a8
100
AcDbEntity
  8
Layer_1
 62
7
100
AcDbSpline
 70
8
 71
3
 72
8
 73
4
 74
0
 40
0
 40
0
 40
0
 40
0
 40
1
 40
1
 40
1
 40
1
 10
4.918417
 20
6.376003
 30
0.0
 10
4.943426
 20
6.365644
 30
0.0
 10
4.972214
 20
6.371370
 30
0.0
 10
4.991355
 20
6.390511
 30
0.0
  0
SPLINE
  5
1a9
100
AcDbEntity
  8
Layer_1
 62
7
100
AcDbSpline
 70
8
 71
3
 72
8
 73
4
 74
0
 40
0
 40
0
 40
0
 40
0
 40
1
 40
1
 40
1
 40
1
 10
4.991355
 20
6.390511
 30
0.0
 10
5.010497
 20
6.409653
 30
0.0
 10
5.016223
 20
6.438440
 30
0.0
 10
5.005864
 20
6.463450
 30
0.0
  0
SPLINE
  5
1aa
100
AcDbEntity
  8
Layer_1
 62
7
100
AcDbSpline
 70
8
 71
3
 72
8
 73
4
 74
0
 40
0
 40
0
 40
0
 40
0
 40
1
 40
1
 40
1
 40
1
 10
5.005864
 20
6.463450
 30
0.0
 10
4.995504
 20
6.488460
 30
0.0
 10
4.971100
 20
6.504767
 30
0.0
 10
4.944029
 20
6.504767
 30
0.0
  0
SPLINE
  5
1ab
100
AcDbEntity
  8
Layer_1
 62
7
100
AcDbSpline
 70
8
 71
3
 72
8
 73
4
 74
0
 40
0
 40
0
 40
0
 40
0
 40
1
 40
1
 40
1
 40
1
 10
4.944029
 20
6.504767
 30
0.0
 10
4.926279
 20
6.504767
 30
0.0
 10
4.909255
 20
6.497715
 30
0.0
 10
4.896703
 20
6.485163
 30
0.0
  0
SPLINE
  5
1ac
100
AcDbEntity
  8
Layer_1
 62
7
100
AcDbSpline
 70
8
 71
3
 72
8
 73
4
 74
0
 40
0
 40
0
 40
0
 40
0
 40
1
 40
1
 40
1
 40
1
 10
4.896703
 20
6.485163
 30
0.0
 10
4.884152
 20
6.472612
 30
0.0
 10
4.877100
 20
6.455588
 30
0.0
 10
4.877100
 20
6.437837
 30
0.0
  0
LWPOLYLINE
  5
1ad
100
AcDbEntity
  8
Layer_1
 62
7
100
AcDbPolyline
 90
1
 70
1
 10
5.575913
 20
7.040200
 30
0.0
  0
SPLINE
  5
1ae
100
AcDbEntity
  8
Layer_1
 62
7
100
AcDbSpline
 70
8
 71
3
 72
8
 73
4
 74
0
 40
0
 40
0
 40
0
 40
0
 40
1
 40
1
 40
1
 40
1
 10
5.575913
 20
6.437837
 30
0.0
 10
5.575913
 20
6.410767
 30
0.0
 10
5.592220
 20
6.386362
 30
0.0
 10
5.617229
 20
6.376003
 30
0.0
  0
SPLINE
  5
1af
100
AcDbEntity
  8
Layer_1
 62
7
100
AcDbSpline
 70
8
 71
3
 72
8
 73
4
 74
0
 40
0
 40
0
 40
0
 40
0
 40
1
 40
1
 40
1
 40
1
 10
5.617229
 20
6.376003
 30
0.0
 10
5.642239
 20
6.365644
 30
0.0
 10
5.671027
 20
6.371370
 30
0.0
 10
5.690168
 20
6.390511
 30
0.0
  0
SPLINE
  5
1b0
100
AcDbEntity
  8
Layer_1
 62
7
100
AcDbSpline
 70
8
 71
3
 72
8
 73
4
 74
0
 40
0
 40
0
 40
0
 40
0
 40
1
 40
1
 40
1
 40
1
 10
5.690168
 20
6.390511
 30
0.0
 10
5.709310
 20
6.409653
 30
0.0
 10
5.715036
 20
6.438440
 30
0.0
 10
5.704677
 20
6.463450
 30
0.0
  0
SPLINE
  5
1b1
100
AcDbEntity
  8
Layer_1
 62
7
100
AcDbSpline
 70
8
 71
3
 72
8
 73
4
 74
0
 40
0
 40
0
 40
0
 40
0
 40
1
 40
1
 40
1
 40
1
 10
5.704677
 20
6.463450
 30
0.0
 10
5.694317
 20
6.488460
 30
0.0
 10
5.669912
 20
6.504767
 30
0.0
 10
5.642842
 20
6.504767
 30
0.0
  0
SPLINE
  5
1b2
100
AcDbEntity
  8
Layer_1
 62
7
100
AcDbSpline
 70
8
 71
3
 72
8
 73
4
 74
0
 40
0
 40
0
 40
0
 40
0
 40
1
 40
1
 40
1
 40
1
 10
5.642842
 20
6.504767
 30
0.0
 10
5.625091
 20
6.504767
 30
0.0
 10
5.608068
 20
6.497715
 30
0.0
 10
5.595516
 20
6.485163
 30
0.0
  0
SPLINE
  5
1b3
100
AcDbEntity
  8
Layer_1
 62
7
100
AcDbSpline
 70
8
 71
3
 72
8
 73
4
 74
0
 40
0
 40
0
 40
0
 40
0
 40
1
 40
1
 40
1
 40
1
 10
5.595516
 20
6.485163
 30
0.0
 10
5.582964
 20
6.472612
 30
0.0
 10
5.575913
 20
6.455588
 30
0.0
 10
5.575913
 20
6.437837
 30
0.0
  0
LWPOLYLINE
  5
1b4
100
AcDbEntity
  8
Layer_1
 62
7
100
AcDbPolyline
 90
1
 70
1
 10
4.877100
 20
6.437837
 30
0.0
  0
LWPOLYLINE
  5
1b5
100
AcDbEntity
  8
Layer_1
 62
7
100
AcDbPolyline
 90
1
 70
1
 10
5.575913
 20
6.437837
 30
0.0
  0
SPLINE
  5
1b6
100
AcDbEntity
  8
Layer_1
 62
7
100
AcDbSpline
 70
8
 71
3
 72
8
 73
4
 74
0
 40
0
 40
0
 40
0
 40
0
 40
1
 40
1
 40
1
 40
1
 10
0.273825
 20
7.132247
 30
0.0
 10
0.249939
 20
7.132247
 30
0.0
 10
0.228406
 20
7.117859
 30
0.0
 10
0.219265
 20
7.095791
 30
0.0
  0
SPLINE
  5
1b7
100
AcDbEntity
  8
Layer_1
 62
7
100
AcDbSpline
 70
8
 71
3
 72
8
 73
4
 74
0
 40
0
 40
0
 40
0
 40
0
 40
1
 40
1
 40
1
 40
1
 10
0.219265
 20
7.095791
 30
0.0
 10
0.210124
 20
7.073724
 30
0.0
 10
0.215177
 20
7.048323
 30
0.0
 10
0.232066
 20
7.031434
 30
0.0
  0
SPLINE
  5
1b8
100
AcDbEntity
  8
Layer_1
 62
7
100
AcDbSpline
 70
8
 71
3
 72
8
 73
4
 74
0
 40
0
 40
0
 40
0
 40
0
 40
1
 40
1
 40
1
 40
1
 10
0.232066
 20
7.031434
 30
0.0
 10
0.248956
 20
7.014544
 30
0.0
 10
0.274357
 20
7.009491
 30
0.0
 10
0.296424
 20
7.018632
 30
0.0
  0
SPLINE
  5
1b9
100
AcDbEntity
  8
Layer_1
 62
7
100
AcDbSpline
 70
8
 71
3
 72
8
 73
4
 74
0
 40
0
 40
0
 40
0
 40
0
 40
1
 40
1
 40
1
 40
1
 10
0.296424
 20
7.018632
 30
0.0
 10
0.318492
 20
7.027773
 30
0.0
 10
0.332880
 20
7.049306
 30
0.0
 10
0.332880
 20
7.073192
 30
0.0
  0
SPLINE
  5
1ba
100
AcDbEntity
  8
Layer_1
 62
7
100
AcDbSpline
 70
8
 71
3
 72
8
 73
4
 74
0
 40
0
 40
0
 40
0
 40
0
 40
1
 40
1
 40
1
 40
1
 10
0.332880
 20
7.073192
 30
0.0
 10
0.332880
 20
7.088854
 30
0.0
 10
0.326658
 20
7.103875
 30
0.0
 10
0.315583
 20
7.114950
 30
0.0
  0
SPLINE
  5
1bb
100
AcDbEntity
  8
Layer_1
 62
7
100
AcDbSpline
 70
8
 71
3
 72
8
 73
4
 74
0
 40
0
 40
0
 40
0
 40
0
 40
1
 40
1
 40
1
 40
1
 10
0.315583
 20
7.114950
 30
0.0
 10
0.304508
 20
7.126025
 30
0.0
 10
0.289487
 20
7.132247
 30
0.0
 10
0.273825
 20
7.132247
 30
0.0
  0
LWPOLYLINE
  5
1bc
100
AcDbEntity
  8
Layer_1
 62
7
100
AcDbPolyline
 90
4
 70
1
 10
0.076958
 20
7.270069
 30
0.0
 10
6.376170
 20
7.270069
 30
0.0
 10
6.376170
 20
0.970857
 30
0.0
 10
0.076958
 20
0.970857
 30
0.0
  0
SPLINE
  5
1bd
100
AcDbEntity
  8
Layer_1
 62
7
100
AcDbSpline
 70
8
 71
3
 72
8
 73
4
 74
0
 40
0
 40
0
 40
0
 40
0
 40
1
 40
1
 40
1
 40
1
 10
6.179319
 20
7.132247
 30
0.0
 10
6.155434
 20
7.132247
 30
0.0
 10
6.133900
 20
7.117859
 30
0.0
 10
6.124759
 20
7.095791
 30
0.0
  0
SPLINE
  5
1be
100
AcDbEntity
  8
Layer_1
 62
7
100
AcDbSpline
 70
8
 71
3
 72
8
 73
4
 74
0
 40
0
 40
0
 40
0
 40
0
 40
1
 40
1
 40
1
 40
1
 10
6.124759
 20
7.095791
 30
0.0
 10
6.115619
 20
7.073724
 30
0.0
 10
6.120671
 20
7.048323
 30
0.0
 10
6.137561
 20
7.031434
 30
0.0
  0
SPLINE
  5
1bf
100
AcDbEntity
  8
Layer_1
 62
7
100
AcDbSpline
 70
8
 71
3
 72
8
 73
4
 74
0
 40
0
 40
0
 40
0
 40
0
 40
1
 40
1
 40
1
 40
1
 10
6.137561
 20
7.031434
 30
0.0
 10
6.154451
 20
7.014544
 30
0.0
 10
6.179851
 20
7.009491
 30
0.0
 10
6.201919
 20
7.018632
 30
0.0
  0
SPLINE
  5
1c0
100
AcDbEntity
  8
Layer_1
 62
7
100
AcDbSpline
 70
8
 71
3
 72
8
 73
4
 74
0
 40
0
 40
0
 40
0
 40
0
 40
1
 40
1
 40
1
 40
1
 10
6.201919
 20
7.018632
 30
0.0
 10
6.223986
 20
7.027773
 30
0.0
 10
6.238374
 20
7.049306
 30
0.0
 10
6.238374
 20
7.073192
 30
0.0
  0
SPLINE
  5
1c1
100
AcDbEntity
  8
Layer_1
 62
7
100
AcDbSpline
 70
8
 71
3
 72
8
 73
4
 74
0
 40
0
 40
0
 40
0
 40
0
 40
1
 40
1
 40
1
 40
1
 10
6.238374
 20
7.073192
 30
0.0
 10
6.238374
 20
7.088854
 30
0.0
 10
6.232153
 20
7.103875
 30
0.0
 10
6.221078
 20
7.114950
 30
0.0
  0
SPLINE
  5
1c2
100
AcDbEntity
  8
Layer_1
 62
7
100
AcDbSpline
 70
8
 71
3
 72
8
 73
4
 74
0
 40
0
 40
0
 40
0
 40
0
 40
1
 40
1
 40
1
 40
1
 10
6.221078
 20
7.114950
 30
0.0
 10
6.210003
 20
7.126025
 30
0.0
 10
6.194982
 20
7.132247
 30
0.0
 10
6.179319
 20
7.132247
 30
0.0
  0
LWPOLYLINE
  5
1c3
100
AcDbEntity
  8
Layer_1
 62
7
100
AcDbPolyline
 90
1
 70
1
 10
0.273825
 20
7.132247
 30
0.0
  0
SPLINE
  5
1c4
100
AcDbEntity
  8
Layer_1
 62
7
100
AcDbSpline
 70
8
 71
3
 72
8
 73
4
 74
0
 40
0
 40
0
 40
0
 40
0
 40
1
 40
1
 40
1
 40
1
 10
6.179319
 20
1.226752
 30
0.0
 10
6.155434
 20
1.226752
 30
0.0
 10
6.133900
 20
1.212364
 30
0.0
 10
6.124759
 20
1.190296
 30
0.0
  0
SPLINE
  5
1c5
100
AcDbEntity
  8
Layer_1
 62
7
100
AcDbSpline
 70
8
 71
3
 72
8
 73
4
 74
0
 40
0
 40
0
 40
0
 40
0
 40
1
 40
1
 40
1
 40
1
 10
6.124759
 20
1.190296
 30
0.0
 10
6.115619
 20
1.168229
 30
0.0
 10
6.120671
 20
1.142828
 30
0.0
 10
6.137561
 20
1.125939
 30
0.0
  0
SPLINE
  5
1c6
100
AcDbEntity
  8
Layer_1
 62
7
100
AcDbSpline
 70
8
 71
3
 72
8
 73
4
 74
0
 40
0
 40
0
 40
0
 40
0
 40
1
 40
1
 40
1
 40
1
 10
6.137561
 20
1.125939
 30
0.0
 10
6.154451
 20
1.109049
 30
0.0
 10
6.179851
 20
1.103996
 30
0.0
 10
6.201919
 20
1.113137
 30
0.0
  0
SPLINE
  5
1c7
100
AcDbEntity
  8
Layer_1
 62
7
100
AcDbSpline
 70
8
 71
3
 72
8
 73
4
 74
0
 40
0
 40
0
 40
0
 40
0
 40
1
 40
1
 40
1
 40
1
 10
6.201919
 20
1.113137
 30
0.0
 10
6.223986
 20
1.122278
 30
0.0
 10
6.238374
 20
1.143811
 30
0.0
 10
6.238374
 20
1.167697
 30
0.0
  0
SPLINE
  5
1c8
100
AcDbEntity
  8
Layer_1
 62
7
100
AcDbSpline
 70
8
 71
3
 72
8
 73
4
 74
0
 40
0
 40
0
 40
0
 40
0
 40
1
 40
1
 40
1
 40
1
 10
6.238374
 20
1.167697
 30
0.0
 10
6.238374
 20
1.183359
 30
0.0
 10
6.232153
 20
1.198380
 30
0.0
 10
6.221078
 20
1.209455
 30
0.0
  0
SPLINE
  5
1c9
100
AcDbEntity
  8
Layer_1
 62
7
100
AcDbSpline
 70
8
 71
3
 72
8
 73
4
 74
0
 40
0
 40
0
 40
0
 40
0
 40
1
 40
1
 40
1
 40
1
 10
6.221078
 20
1.209455
 30
0.0
 10
6.210003
 20
1.220530
 30
0.0
 10
6.194982
 20
1.226752
 30
0.0
 10
6.179319
 20
1.226752
 30
0.0
  0
LWPOLYLINE
  5
1ca
100
AcDbEntity
  8
Layer_1
 62
7
100
AcDbPolyline
 90
1
 70
1
 10
6.179319
 20
7.132247
 30
0.0
  0
SPLINE
  5
1cb
100
AcDbEntity
  8
Layer_1
 62
7
100
AcDbSpline
 70
8
 71
3
 72
8
 73
4
 74
0
 40
0
 40
0
 40
0
 40
0
 40
1
 40
1
 40
1
 40
1
 10
0.273807
 20
1.226752
 30
0.0
 10
0.249921
 20
1.226752
 30
0.0
 10
0.228388
 20
1.212364
 30
0.0
 10
0.219247
 20
1.190296
 30
0.0
  0
SPLINE
  5
1cc
100
AcDbEntity
  8
Layer_1
 62
7
100
AcDbSpline
 70
8
 71
3
 72
8
 73
4
 74
0
 40
0
 40
0
 40
0
 40
0
 40
1
 40
1
 40
1
 40
1
 10
0.219247
 20
1.190296
 30
0.0
 10
0.210107
 20
1.168229
 30
0.0
 10
0.215159
 20
1.142828
 30
0.0
 10
0.232049
 20
1.125939
 30
0.0
  0
SPLINE
  5
1cd
100
AcDbEntity
  8
Layer_1
 62
7
100
AcDbSpline
 70
8
 71
3
 72
8
 73
4
 74
0
 40
0
 40
0
 40
0
 40
0
 40
1
 40
1
 40
1
 40
1
 10
0.232049
 20
1.125939
 30
0.0
 10
0.248938
 20
1.109049
 30
0.0
 10
0.274339
 20
1.103996
 30
0.0
 10
0.296406
 20
1.113137
 30
0.0
  0
SPLINE
  5
1ce
100
AcDbEntity
  8
Layer_1
 62
7
100
AcDbSpline
 70
8
 71
3
 72
8
 73
4
 74
0
 40
0
 40
0
 40
0
 40
0
 40
1
 40
1
 40
1
 40
1
 10
0.296406
 20
1.113137
 30
0.0
 10
0.318474
 20
1.122278
 30
0.0
 10
0.332862
 20
1.143811
 30
0.0
 10
0.332862
 20
1.167697
 30
0.0
  0
SPLINE
  5
1cf
100
AcDbEntity
  8
Layer_1
 62
7
100
AcDbSpline
 70
8
 71
3
 72
8
 73
4
 74
0
 40
0
 40
0
 40
0
 40
0
 40
1
 40
1
 40
1
 40
1
 10
0.332862
 20
1.167697
 30
0.0
 10
0.332862
 20
1.183359
 30
0.0
 10
0.326640
 20
1.198380
 30
0.0
 10
0.315565
 20
1.209455
 30
0.0
  0
SPLINE
  5
1d0
100
AcDbEntity
  8
Layer_1
 62
7
100
AcDbSpline
 70
8
 71
3
 72
8
 73
4
 74
0
 40
0
 40
0
 40
0
 40
0
 40
1
 40
1
 40
1
 40
1
 10
0.315565
 20
1.209455
 30
0.0
 10
0.304490
 20
1.220530
 30
0.0
 10
0.289469
 20
1.226752
 30
0.0
 10
0.273807
 20
1.226752
 30
0.0
  0
LWPOLYLINE
  5
1d1
100
AcDbEntity
  8
Layer_1
 62
7
100
AcDbPolyline
 90
1
 70
1
 10
6.179319
 20
1.226752
 30
0.0
  0
SPLINE
  5
1d2
100
AcDbEntity
  8
Layer_1
 62
7
100
AcDbSpline
 70
8
 71
3
 72
8
 73
4
 74
0
 40
0
 40
0
 40
0
 40
0
 40
1
 40
1
 40
1
 40
1
 10
3.751805
 20
6.703300
 30
0.0
 10
3.672186
 20
6.703300
 30
0.0
 10
3.600407
 20
6.655339
 30
0.0
 10
3.569939
 20
6.581781
 30
0.0
  0
SPLINE
  5
1d3
100
AcDbEntity
  8
Layer_1
 62
7
100
AcDbSpline
 70
8
 71
3
 72
8
 73
4
 74
0
 40
0
 40
0
 40
0
 40
0
 40
1
 40
1
 40
1
 40
1
 10
3.569939
 20
6.581781
 30
0.0
 10
3.539470
 20
6.508223
 30
0.0
 10
3.556312
 20
6.423554
 30
0.0
 10
3.612610
 20
6.367255
 30
0.0
  0
SPLINE
  5
1d4
100
AcDbEntity
  8
Layer_1
 62
7
100
AcDbSpline
 70
8
 71
3
 72
8
 73
4
 74
0
 40
0
 40
0
 40
0
 40
0
 40
1
 40
1
 40
1
 40
1
 10
3.612610
 20
6.367255
 30
0.0
 10
3.668909
 20
6.310956
 30
0.0
 10
3.753578
 20
6.294114
 30
0.0
 10
3.827136
 20
6.324583
 30
0.0
  0
SPLINE
  5
1d5
100
AcDbEntity
  8
Layer_1
 62
7
100
AcDbSpline
 70
8
 71
3
 72
8
 73
4
 74
0
 40
0
 40
0
 40
0
 40
0
 40
1
 40
1
 40
1
 40
1
 10
3.827136
 20
6.324583
 30
0.0
 10
3.900694
 20
6.355052
 30
0.0
 10
3.948655
 20
6.426831
 30
0.0
 10
3.948655
 20
6.506449
 30
0.0
  0
SPLINE
  5
1d6
100
AcDbEntity
  8
Layer_1
 62
7
100
AcDbSpline
 70
8
 71
3
 72
8
 73
4
 74
0
 40
0
 40
0
 40
0
 40
0
 40
1
 40
1
 40
1
 40
1
 10
3.948655
 20
6.506449
 30
0.0
 10
3.948655
 20
6.558657
 30
0.0
 10
3.927915
 20
6.608727
 30
0.0
 10
3.890999
 20
6.645643
 30
0.0
  0
SPLINE
  5
1d7
100
AcDbEntity
  8
Layer_1
 62
7
100
AcDbSpline
 70
8
 71
3
 72
8
 73
4
 74
0
 40
0
 40
0
 40
0
 40
0
 40
1
 40
1
 40
1
 40
1
 10
3.890999
 20
6.645643
 30
0.0
 10
3.854082
 20
6.682560
 30
0.0
 10
3.804013
 20
6.703300
 30
0.0
 10
3.751805
 20
6.703300
 30
0.0
  0
LWPOLYLINE
  5
1d8
100
AcDbEntity
  8
Layer_1
 62
7
100
AcDbPolyline
 90
1
 70
1
 10
0.273807
 20
1.226752
 30
0.0
  0
LWPOLYLINE
  5
1d9
100
AcDbEntity
  8
Layer_1
 62
7
100
AcDbPolyline
 90
1
 70
1
 10
3.751805
 20
6.703300
 30
0.0
  0
SPLINE
  5
1da
100
AcDbEntity
  8
Layer_1
 62
7
100
AcDbSpline
 70
8
 71
3
 72
8
 73
4
 74
0
 40
0
 40
0
 40
0
 40
0
 40
1
 40
1
 40
1
 40
1
 10
1.732582
 20
13.549462
 30
0.0
 10
1.708696
 20
13.549462
 30
0.0
 10
1.687163
 20
13.535074
 30
0.0
 10
1.678022
 20
13.513006
 30
0.0
  0
SPLINE
  5
1db
100
AcDbEntity
  8
Layer_1
 62
7
100
AcDbSpline
 70
8
 71
3
 72
8
 73
4
 74
0
 40
0
 40
0
 40
0
 40
0
 40
1
 40
1
 40
1
 40
1
 10
1.678022
 20
13.513006
 30
0.0
 10
1.668881
 20
13.490939
 30
0.0
 10
1.673934
 20
13.465538
 30
0.0
 10
1.690823
 20
13.448649
 30
0.0
  0
SPLINE
  5
1dc
100
AcDbEntity
  8
Layer_1
 62
7
100
AcDbSpline
 70
8
 71
3
 72
8
 73
4
 74
0
 40
0
 40
0
 40
0
 40
0
 40
1
 40
1
 40
1
 40
1
 10
1.690823
 20
13.448649
 30
0.0
 10
1.707713
 20
13.431759
 30
0.0
 10
1.733114
 20
13.426707
 30
0.0
 10
1.755181
 20
13.435847
 30
0.0
  0
SPLINE
  5
1dd
100
AcDbEntity
  8
Layer_1
 62
7
100
AcDbSpline
 70
8
 71
3
 72
8
 73
4
 74
0
 40
0
 40
0
 40
0
 40
0
 40
1
 40
1
 40
1
 40
1
 10
1.755181
 20
13.435847
 30
0.0
 10
1.777249
 20
13.444988
 30
0.0
 10
1.791637
 20
13.466521
 30
0.0
 10
1.791637
 20
13.490407
 30
0.0
  0
SPLINE
  5
1de
100
AcDbEntity
  8
Layer_1
 62
7
100
AcDbSpline
 70
8
 71
3
 72
8
 73
4
 74
0
 40
0
 40
0
 40
0
 40
0
 40
1
 40
1
 40
1
 40
1
 10
1.791637
 20
13.490407
 30
0.0
 10
1.791637
 20
13.506069
 30
0.0
 10
1.785415
 20
13.521090
 30
0.0
 10
1.774340
 20
13.532165
 30
0.0
  0
SPLINE
  5
1df
100
AcDbEntity
  8
Layer_1
 62
7
100
AcDbSpline
 70
8
 71
3
 72
8
 73
4
 74
0
 40
0
 40
0
 40
0
 40
0
 40
1
 40
1
 40
1
 40
1
 10
1.774340
 20
13.532165
 30
0.0
 10
1.763265
 20
13.543240
 30
0.0
 10
1.748244
 20
13.549462
 30
0.0
 10
1.732582
 20
13.549462
 30
0.0
  0
LWPOLYLINE
  5
1e0
100
AcDbEntity
  8
Layer_1
 62
7
100
AcDbPolyline
 90
4
 70
1
 10
5.166019
 20
6.503472
 30
0.0
 10
5.420843
 20
6.503472
 30
0.0
 10
5.420843
 20
6.327388
 30
0.0
 10
5.166019
 20
6.327388
 30
0.0
  0
SPLINE
  5
1e1
100
AcDbEntity
  8
Layer_1
 62
7
100
AcDbSpline
 70
8
 71
3
 72
8
 73
4
 74
0
 40
0
 40
0
 40
0
 40
0
 40
1
 40
1
 40
1
 40
1
 10
4.649252
 20
13.549462
 30
0.0
 10
4.625366
 20
13.549462
 30
0.0
 10
4.603833
 20
13.535074
 30
0.0
 10
4.594692
 20
13.513006
 30
0.0
  0
SPLINE
  5
1e2
100
AcDbEntity
  8
Layer_1
 62
7
100
AcDbSpline
 70
8
 71
3
 72
8
 73
4
 74
0
 40
0
 40
0
 40
0
 40
0
 40
1
 40
1
 40
1
 40
1
 10
4.594692
 20
13.513006
 30
0.0
 10
4.585552
 20
13.490939
 30
0.0
 10
4.590604
 20
13.465538
 30
0.0
 10
4.607494
 20
13.448649
 30
0.0
  0
SPLINE
  5
1e3
100
AcDbEntity
  8
Layer_1
 62
7
100
AcDbSpline
 70
8
 71
3
 72
8
 73
4
 74
0
 40
0
 40
0
 40
0
 40
0
 40
1
 40
1
 40
1
 40
1
 10
4.607494
 20
13.448649
 30
0.0
 10
4.624383
 20
13.431759
 30
0.0
 10
4.649784
 20
13.426707
 30
0.0
 10
4.671851
 20
13.435847
 30
0.0
  0
SPLINE
  5
1e4
100
AcDbEntity
  8
Layer_1
 62
7
100
AcDbSpline
 70
8
 71
3
 72
8
 73
4
 74
0
 40
0
 40
0
 40
0
 40
0
 40
1
 40
1
 40
1
 40
1
 10
4.671851
 20
13.435847
 30
0.0
 10
4.693919
 20
13.444988
 30
0.0
 10
4.708307
 20
13.466521
 30
0.0
 10
4.708307
 20
13.490407
 30
0.0
  0
SPLINE
  5
1e5
100
AcDbEntity
  8
Layer_1
 62
7
100
AcDbSpline
 70
8
 71
3
 72
8
 73
4
 74
0
 40
0
 40
0
 40
0
 40
0
 40
1
 40
1
 40
1
 40
1
 10
4.708307
 20
13.490407
 30
0.0
 10
4.708307
 20
13.506069
 30
0.0
 10
4.702085
 20
13.521090
 30
0.0
 10
4.691010
 20
13.532165
 30
0.0
  0
SPLINE
  5
1e6
100
AcDbEntity
  8
Layer_1
 62
7
100
AcDbSpline
 70
8
 71
3
 72
8
 73
4
 74
0
 40
0
 40
0
 40
0
 40
0
 40
1
 40
1
 40
1
 40
1
 10
4.691010
 20
13.532165
 30
0.0
 10
4.679935
 20
13.543240
 30
0.0
 10
4.664914
 20
13.549462
 30
0.0
 10
4.649252
 20
13.549462
 30
0.0
  0
LWPOLYLINE
  5
1e7
100
AcDbEntity
  8
Layer_1
 62
7
100
AcDbPolyline
 90
1
 70
1
 10
1.732582
 20
13.549462
 30
0.0
  0
LWPOLYLINE
  5
1e8
100
AcDbEntity
  8
Layer_1
 62
7
100
AcDbPolyline
 90
1
 70
1
 10
4.649252
 20
13.549462
 30
0.0
  0
ENDSEC
  0
SECTION
  2
OBJECTS
  0
DICTIONARY
  5
C
330
0
100
AcDbDictionary
  3
ACAD_GROUP
350
D
  3
ACAD_MLINESTYLE
350
17
  0
DICTIONARY
  5
D
330
C
100
AcDbDictionary
  0
DICTIONARY
  5
1A
330
C
100
AcDbDictionary
  0
DICTIONARY
  5
17
330
C
100
AcDbDictionary
  3
STANDARD
350
18
  0
DICTIONARY
  5
19
330
C
100
AcDbDictionary
  0
ENDSEC
  0
EOF
