  0
SECTION
  2
HEADER
  9
$ACADVER
  1
AC1014
  9
$HANDSEED
  5
FFFF
  9
$MEASUREMENT
 70
     1
  0
ENDSEC
  0
SECTION
  2
TABLES
  0
TABLE
  2
VPORT
  5
8
330
0
100
AcDbSymbolTable
 70
     4
  0
VPORT
  5
2E
330
8
100
AcDbSymbolTableRecord
100
AcDbViewportTableRecord
  2
*ACTIVE
 70
     0
 10
0.0
 20
0.0
 11
1.0
 21
1.0
 12
210.0
 22
148.5
 13
0.0
 23
0.0
 14
10.0
 24
10.0
 15
10.0
 25
10.0
 16
0.0
 26
0.0
 36
1.0
 17
0.0
 27
0.0
 37
0.0
 40
341.0
 41
1.24
 42
50.0
 43
0.0
 44
0.0
 50
0.0
 51
0.0
 71
     0
 72
   100
 73
     1
 74
     3
 75
     0
 76
     0
 77
     0
 78
     0
  0
ENDTAB
  0
TABLE
  2
LTYPE
  5
5
330
0
100
AcDbSymbolTable
 70
     1
  0
LTYPE
  5
14
330
5
100
AcDbSymbolTableRecord
100
AcDbLinetypeTableRecord
  2
BYBLOCK
 70
     0
  3

 72
    65
 73
     0
 40
0.0
  0
LTYPE
  5
15
330
5
100
AcDbSymbolTableRecord
100
AcDbLinetypeTableRecord
  2
BYLAYER
 70
     0
  3

 72
    65
 73
     0
 40
0.0
  0
LTYPE
  5
16
330
5
100
AcDbSymbolTableRecord
100
AcDbLinetypeTableRecord
  2
CONTINUOUS
 70
     0
  3
Solid line
 72
    65
 73
     0
 40
0.0
  0
ENDTAB
  0
TABLE
  2
LAYER
  5
2
100
AcDbSymbolTable
 70
2
  0
LAYER
  5
50
100
AcDbSymbolTableRecord
100
AcDbLayerTableRecord
  2
0
 70
0
  6
CONTINUOUS
  0
LAYER
  5
51
100
AcDbSymbolTableRecord
100
AcDbLayerTableRecord
  2
Layer_1
 70
0
  6
CONTINUOUS
  0
ENDTAB
  0
TABLE
  2
STYLE
  5
3
330
0
100
AcDbSymbolTable
 70
     1
  0
STYLE
  5
11
330
3
100
AcDbSymbolTableRecord
100
AcDbTextStyleTableRecord
  2
STANDARD
 70
     0
 40
0.0
 41
1.0
 50
0.0
 71
     0
 42
2.5
  3
txt
  4

  0
ENDTAB
  0
TABLE
  2
VIEW
  5
6
330
0
100
AcDbSymbolTable
 70
     0
  0
ENDTAB
  0
TABLE
  2
UCS
  5
7
330
0
100
AcDbSymbolTable
 70
     0
  0
ENDTAB
  0
TABLE
  2
APPID
  5
9
330
0
100
AcDbSymbolTable
 70
     2
  0
APPID
  5
12
330
9
100
AcDbSymbolTableRecord
100
AcDbRegAppTableRecord
  2
ACAD
 70
     0
  0
ENDTAB
  0
TABLE
  2
DIMSTYLE
  5
A
330
0
100
AcDbSymbolTable
 70
     1
  0
DIMSTYLE
105
27
330
A
100
AcDbSymbolTableRecord
100
AcDbDimStyleTableRecord
  2
ISO-25
 70
     0
  3

  4

  5

  6

  7

 40
1.0
 41
2.5
 42
0.625
 43
3.75
 44
1.25
 45
0.0
 46
0.0
 47
0.0
 48
0.0
140
2.5
141
2.5
142
0.0
143
0.03937007874016
144
1.0
145
0.0
146
1.0
147
0.625
 71
     0
 72
     0
 73
     0
 74
     0
 75
     0
 76
     0
 77
     1
 78
     8
170
     0
171
     3
172
     1
173
     0
174
     0
175
     0
176
     0
177
     0
178
     0
270
     2
271
     2
272
     2
273
     2
274
     3
340
11
275
     0
280
     0
281
     0
282
     0
283
     0
284
     8
285
     0
286
     0
287
     3
288
     0
  0
ENDTAB
  0
TABLE
  2
BLOCK_RECORD
  5
1
330
0
100
AcDbSymbolTable
 70
     1
  0
BLOCK_RECORD
  5
1F
330
1
100
AcDbSymbolTableRecord
100
AcDbBlockTableRecord
  2
*MODEL_SPACE
  0
BLOCK_RECORD
  5
1B
330
1
100
AcDbSymbolTableRecord
100
AcDbBlockTableRecord
  2
*PAPER_SPACE
  0
ENDTAB
  0
ENDSEC
  0
SECTION
  2
BLOCKS
  0
BLOCK
  5
20
330
1F
100
AcDbEntity
  8
0
100
AcDbBlockBegin
  2
*MODEL_SPACE
 70
     0
 10
0.0
 20
0.0
 30
0.0
  3
*MODEL_SPACE
  1

  0
ENDBLK
  5
21
330
1F
100
AcDbEntity
  8
0
100
AcDbBlockEnd
  0
BLOCK
  5
1C
330
1B
100
AcDbEntity
 67
     1
  8
0
100
AcDbBlockBegin
  2
*PAPER_SPACE
  1

  0
ENDBLK
  5
1D
330
1B
100
AcDbEntity
 67
     1
  8
0
100
AcDbBlockEnd
  0
ENDSEC
  0
SECTION
  2
ENTITIES
  0
SPLINE
  5
100
100
AcDbEntity
  8
Layer_1
 62
7
100
AcDbSpline
 70
8
 71
3
 72
8
 73
4
 74
0
 40
0
 40
0
 40
0
 40
0
 40
1
 40
1
 40
1
 40
1
 10
102.647640
 20
333.744768
 30
0.0
 10
102.040947
 20
333.744768
 30
0.0
 10
101.493992
 20
333.379305
 30
0.0
 10
101.261821
 20
332.818793
 30
0.0
  0
SPLINE
  5
101
100
AcDbEntity
  8
Layer_1
 62
7
100
AcDbSpline
 70
8
 71
3
 72
8
 73
4
 74
0
 40
0
 40
0
 40
0
 40
0
 40
1
 40
1
 40
1
 40
1
 10
101.261821
 20
332.818793
 30
0.0
 10
101.029649
 20
332.258282
 30
0.0
 10
101.157983
 20
331.613105
 30
0.0
 10
101.586980
 20
331.184108
 30
0.0
  0
SPLINE
  5
102
100
AcDbEntity
  8
Layer_1
 62
7
100
AcDbSpline
 70
8
 71
3
 72
8
 73
4
 74
0
 40
0
 40
0
 40
0
 40
0
 40
1
 40
1
 40
1
 40
1
 10
101.586980
 20
331.184108
 30
0.0
 10
102.015977
 20
330.755111
 30
0.0
 10
102.661154
 20
330.626777
 30
0.0
 10
103.221665
 20
330.858949
 30
0.0
  0
SPLINE
  5
103
100
AcDbEntity
  8
Layer_1
 62
7
100
AcDbSpline
 70
8
 71
3
 72
8
 73
4
 74
0
 40
0
 40
0
 40
0
 40
0
 40
1
 40
1
 40
1
 40
1
 10
103.221665
 20
330.858949
 30
0.0
 10
103.782177
 20
331.091120
 30
0.0
 10
104.147640
 20
331.638075
 30
0.0
 10
104.147640
 20
332.244768
 30
0.0
  0
SPLINE
  5
104
100
AcDbEntity
  8
Layer_1
 62
7
100
AcDbSpline
 70
8
 71
3
 72
8
 73
4
 74
0
 40
0
 40
0
 40
0
 40
0
 40
1
 40
1
 40
1
 40
1
 10
104.147640
 20
332.244768
 30
0.0
 10
104.147640
 20
332.642593
 30
0.0
 10
103.989605
 20
333.024124
 30
0.0
 10
103.708300
 20
333.305428
 30
0.0
  0
SPLINE
  5
105
100
AcDbEntity
  8
Layer_1
 62
7
100
AcDbSpline
 70
8
 71
3
 72
8
 73
4
 74
0
 40
0
 40
0
 40
0
 40
0
 40
1
 40
1
 40
1
 40
1
 10
103.708300
 20
333.305428
 30
0.0
 10
103.426996
 20
333.586733
 30
0.0
 10
103.045465
 20
333.744768
 30
0.0
 10
102.647640
 20
333.744768
 30
0.0
  0
LINE
  5
106
100
AcDbEntity
  8
Layer_1
 62
7
100
AcDbLine
 10
102.647640
 20
333.744768
 30
0.0
 11
102.647640
 21
333.744768
 31
0.0
  0
SPLINE
  5
107
100
AcDbEntity
  8
Layer_1
 62
7
100
AcDbSpline
 70
8
 71
3
 72
8
 73
4
 74
0
 40
0
 40
0
 40
0
 40
0
 40
1
 40
1
 40
1
 40
1
 10
102.647640
 20
327.414500
 30
0.0
 10
102.040947
 20
327.414500
 30
0.0
 10
101.493992
 20
327.049037
 30
0.0
 10
101.261821
 20
326.488525
 30
0.0
  0
SPLINE
  5
108
100
AcDbEntity
  8
Layer_1
 62
7
100
AcDbSpline
 70
8
 71
3
 72
8
 73
4
 74
0
 40
0
 40
0
 40
0
 40
0
 40
1
 40
1
 40
1
 40
1
 10
101.261821
 20
326.488525
 30
0.0
 10
101.029649
 20
325.928014
 30
0.0
 10
101.157983
 20
325.282837
 30
0.0
 10
101.586980
 20
324.853840
 30
0.0
  0
SPLINE
  5
109
100
AcDbEntity
  8
Layer_1
 62
7
100
AcDbSpline
 70
8
 71
3
 72
8
 73
4
 74
0
 40
0
 40
0
 40
0
 40
0
 40
1
 40
1
 40
1
 40
1
 10
101.586980
 20
324.853840
 30
0.0
 10
102.015977
 20
324.424843
 30
0.0
 10
102.661154
 20
324.296509
 30
0.0
 10
103.221665
 20
324.528681
 30
0.0
  0
SPLINE
  5
10a
100
AcDbEntity
  8
Layer_1
 62
7
100
AcDbSpline
 70
8
 71
3
 72
8
 73
4
 74
0
 40
0
 40
0
 40
0
 40
0
 40
1
 40
1
 40
1
 40
1
 10
103.221665
 20
324.528681
 30
0.0
 10
103.782177
 20
324.760852
 30
0.0
 10
104.147640
 20
325.307807
 30
0.0
 10
104.147640
 20
325.914500
 30
0.0
  0
SPLINE
  5
10b
100
AcDbEntity
  8
Layer_1
 62
7
100
AcDbSpline
 70
8
 71
3
 72
8
 73
4
 74
0
 40
0
 40
0
 40
0
 40
0
 40
1
 40
1
 40
1
 40
1
 10
104.147640
 20
325.914500
 30
0.0
 10
104.147640
 20
326.312325
 30
0.0
 10
103.989605
 20
326.693856
 30
0.0
 10
103.708300
 20
326.975160
 30
0.0
  0
SPLINE
  5
10c
100
AcDbEntity
  8
Layer_1
 62
7
100
AcDbSpline
 70
8
 71
3
 72
8
 73
4
 74
0
 40
0
 40
0
 40
0
 40
0
 40
1
 40
1
 40
1
 40
1
 10
103.708300
 20
326.975160
 30
0.0
 10
103.426996
 20
327.256465
 30
0.0
 10
103.045465
 20
327.414500
 30
0.0
 10
102.647640
 20
327.414500
 30
0.0
  0
LINE
  5
10d
100
AcDbEntity
  8
Layer_1
 62
7
100
AcDbLine
 10
102.647640
 20
327.414500
 30
0.0
 11
102.647640
 21
327.414500
 31
0.0
  0
SPLINE
  5
10e
100
AcDbEntity
  8
Layer_1
 62
7
100
AcDbSpline
 70
8
 71
3
 72
8
 73
4
 74
0
 40
0
 40
0
 40
0
 40
0
 40
1
 40
1
 40
1
 40
1
 10
123.878342
 20
342.863070
 30
0.0
 10
123.878342
 20
342.175484
 30
0.0
 10
124.292534
 20
341.555602
 30
0.0
 10
124.927780
 20
341.292475
 30
0.0
  0
SPLINE
  5
10f
100
AcDbEntity
  8
Layer_1
 62
7
100
AcDbSpline
 70
8
 71
3
 72
8
 73
4
 74
0
 40
0
 40
0
 40
0
 40
0
 40
1
 40
1
 40
1
 40
1
 10
124.927780
 20
341.292475
 30
0.0
 10
125.563027
 20
341.029347
 30
0.0
 10
126.294227
 20
341.174792
 30
0.0
 10
126.780424
 20
341.660988
 30
0.0
  0
SPLINE
  5
110
100
AcDbEntity
  8
Layer_1
 62
7
100
AcDbSpline
 70
8
 71
3
 72
8
 73
4
 74
0
 40
0
 40
0
 40
0
 40
0
 40
1
 40
1
 40
1
 40
1
 10
126.780424
 20
341.660988
 30
0.0
 10
127.266620
 20
342.147185
 30
0.0
 10
127.412065
 20
342.878385
 30
0.0
 10
127.148937
 20
343.513632
 30
0.0
  0
SPLINE
  5
111
100
AcDbEntity
  8
Layer_1
 62
7
100
AcDbSpline
 70
8
 71
3
 72
8
 73
4
 74
0
 40
0
 40
0
 40
0
 40
0
 40
1
 40
1
 40
1
 40
1
 10
127.148937
 20
343.513632
 30
0.0
 10
126.885810
 20
344.148878
 30
0.0
 10
126.265928
 20
344.563070
 30
0.0
 10
125.578342
 20
344.563070
 30
0.0
  0
SPLINE
  5
112
100
AcDbEntity
  8
Layer_1
 62
7
100
AcDbSpline
 70
8
 71
3
 72
8
 73
4
 74
0
 40
0
 40
0
 40
0
 40
0
 40
1
 40
1
 40
1
 40
1
 10
125.578342
 20
344.563070
 30
0.0
 10
125.127474
 20
344.563070
 30
0.0
 10
124.695072
 20
344.383963
 30
0.0
 10
124.376260
 20
344.065152
 30
0.0
  0
SPLINE
  5
113
100
AcDbEntity
  8
Layer_1
 62
7
100
AcDbSpline
 70
8
 71
3
 72
8
 73
4
 74
0
 40
0
 40
0
 40
0
 40
0
 40
1
 40
1
 40
1
 40
1
 10
124.376260
 20
344.065152
 30
0.0
 10
124.057449
 20
343.746340
 30
0.0
 10
123.878342
 20
343.313938
 30
0.0
 10
123.878342
 20
342.863070
 30
0.0
  0
LINE
  5
114
100
AcDbEntity
  8
Layer_1
 62
7
100
AcDbLine
 10
123.878342
 20
342.863070
 30
0.0
 11
123.878342
 21
342.863070
 31
0.0
  0
SPLINE
  5
115
100
AcDbEntity
  8
Layer_1
 62
7
100
AcDbSpline
 70
8
 71
3
 72
8
 73
4
 74
0
 40
0
 40
0
 40
0
 40
0
 40
1
 40
1
 40
1
 40
1
 10
141.628189
 20
342.863070
 30
0.0
 10
141.628189
 20
342.175484
 30
0.0
 10
142.042381
 20
341.555602
 30
0.0
 10
142.677627
 20
341.292475
 30
0.0
  0
SPLINE
  5
116
100
AcDbEntity
  8
Layer_1
 62
7
100
AcDbSpline
 70
8
 71
3
 72
8
 73
4
 74
0
 40
0
 40
0
 40
0
 40
0
 40
1
 40
1
 40
1
 40
1
 10
142.677627
 20
341.292475
 30
0.0
 10
143.312874
 20
341.029347
 30
0.0
 10
144.044074
 20
341.174792
 30
0.0
 10
144.530271
 20
341.660988
 30
0.0
  0
SPLINE
  5
117
100
AcDbEntity
  8
Layer_1
 62
7
100
AcDbSpline
 70
8
 71
3
 72
8
 73
4
 74
0
 40
0
 40
0
 40
0
 40
0
 40
1
 40
1
 40
1
 40
1
 10
144.530271
 20
341.660988
 30
0.0
 10
145.016467
 20
342.147185
 30
0.0
 10
145.161912
 20
342.878385
 30
0.0
 10
144.898784
 20
343.513632
 30
0.0
  0
SPLINE
  5
118
100
AcDbEntity
  8
Layer_1
 62
7
100
AcDbSpline
 70
8
 71
3
 72
8
 73
4
 74
0
 40
0
 40
0
 40
0
 40
0
 40
1
 40
1
 40
1
 40
1
 10
144.898784
 20
343.513632
 30
0.0
 10
144.635657
 20
344.148878
 30
0.0
 10
144.015775
 20
344.563070
 30
0.0
 10
143.328189
 20
344.563070
 30
0.0
  0
SPLINE
  5
119
100
AcDbEntity
  8
Layer_1
 62
7
100
AcDbSpline
 70
8
 71
3
 72
8
 73
4
 74
0
 40
0
 40
0
 40
0
 40
0
 40
1
 40
1
 40
1
 40
1
 10
143.328189
 20
344.563070
 30
0.0
 10
142.877321
 20
344.563070
 30
0.0
 10
142.444919
 20
344.383963
 30
0.0
 10
142.126107
 20
344.065152
 30
0.0
  0
SPLINE
  5
11a
100
AcDbEntity
  8
Layer_1
 62
7
100
AcDbSpline
 70
8
 71
3
 72
8
 73
4
 74
0
 40
0
 40
0
 40
0
 40
0
 40
1
 40
1
 40
1
 40
1
 10
142.126107
 20
344.065152
 30
0.0
 10
141.807296
 20
343.746340
 30
0.0
 10
141.628189
 20
343.313938
 30
0.0
 10
141.628189
 20
342.863070
 30
0.0
  0
LINE
  5
11b
100
AcDbEntity
  8
Layer_1
 62
7
100
AcDbLine
 10
141.628189
 20
342.863070
 30
0.0
 11
141.628189
 21
342.863070
 31
0.0
  0
SPLINE
  5
11c
100
AcDbEntity
  8
Layer_1
 62
7
100
AcDbSpline
 70
8
 71
3
 72
8
 73
4
 74
0
 40
0
 40
0
 40
0
 40
0
 40
1
 40
1
 40
1
 40
1
 10
123.878342
 20
327.563070
 30
0.0
 10
123.878342
 20
326.875484
 30
0.0
 10
124.292534
 20
326.255602
 30
0.0
 10
124.927780
 20
325.992475
 30
0.0
  0
SPLINE
  5
11d
100
AcDbEntity
  8
Layer_1
 62
7
100
AcDbSpline
 70
8
 71
3
 72
8
 73
4
 74
0
 40
0
 40
0
 40
0
 40
0
 40
1
 40
1
 40
1
 40
1
 10
124.927780
 20
325.992475
 30
0.0
 10
125.563027
 20
325.729347
 30
0.0
 10
126.294227
 20
325.874792
 30
0.0
 10
126.780424
 20
326.360988
 30
0.0
  0
SPLINE
  5
11e
100
AcDbEntity
  8
Layer_1
 62
7
100
AcDbSpline
 70
8
 71
3
 72
8
 73
4
 74
0
 40
0
 40
0
 40
0
 40
0
 40
1
 40
1
 40
1
 40
1
 10
126.780424
 20
326.360988
 30
0.0
 10
127.266620
 20
326.847185
 30
0.0
 10
127.412065
 20
327.578385
 30
0.0
 10
127.148937
 20
328.213632
 30
0.0
  0
SPLINE
  5
11f
100
AcDbEntity
  8
Layer_1
 62
7
100
AcDbSpline
 70
8
 71
3
 72
8
 73
4
 74
0
 40
0
 40
0
 40
0
 40
0
 40
1
 40
1
 40
1
 40
1
 10
127.148937
 20
328.213632
 30
0.0
 10
126.885810
 20
328.848878
 30
0.0
 10
126.265928
 20
329.263070
 30
0.0
 10
125.578342
 20
329.263070
 30
0.0
  0
SPLINE
  5
120
100
AcDbEntity
  8
Layer_1
 62
7
100
AcDbSpline
 70
8
 71
3
 72
8
 73
4
 74
0
 40
0
 40
0
 40
0
 40
0
 40
1
 40
1
 40
1
 40
1
 10
125.578342
 20
329.263070
 30
0.0
 10
125.127474
 20
329.263070
 30
0.0
 10
124.695072
 20
329.083963
 30
0.0
 10
124.376260
 20
328.765152
 30
0.0
  0
SPLINE
  5
121
100
AcDbEntity
  8
Layer_1
 62
7
100
AcDbSpline
 70
8
 71
3
 72
8
 73
4
 74
0
 40
0
 40
0
 40
0
 40
0
 40
1
 40
1
 40
1
 40
1
 10
124.376260
 20
328.765152
 30
0.0
 10
124.057449
 20
328.446340
 30
0.0
 10
123.878342
 20
328.013938
 30
0.0
 10
123.878342
 20
327.563070
 30
0.0
  0
LINE
  5
122
100
AcDbEntity
  8
Layer_1
 62
7
100
AcDbLine
 10
123.878342
 20
327.563070
 30
0.0
 11
123.878342
 21
327.563070
 31
0.0
  0
SPLINE
  5
123
100
AcDbEntity
  8
Layer_1
 62
7
100
AcDbSpline
 70
8
 71
3
 72
8
 73
4
 74
0
 40
0
 40
0
 40
0
 40
0
 40
1
 40
1
 40
1
 40
1
 10
141.628189
 20
327.563070
 30
0.0
 10
141.628189
 20
326.875484
 30
0.0
 10
142.042381
 20
326.255602
 30
0.0
 10
142.677627
 20
325.992475
 30
0.0
  0
SPLINE
  5
124
100
AcDbEntity
  8
Layer_1
 62
7
100
AcDbSpline
 70
8
 71
3
 72
8
 73
4
 74
0
 40
0
 40
0
 40
0
 40
0
 40
1
 40
1
 40
1
 40
1
 10
142.677627
 20
325.992475
 30
0.0
 10
143.312874
 20
325.729347
 30
0.0
 10
144.044074
 20
325.874792
 30
0.0
 10
144.530271
 20
326.360988
 30
0.0
  0
SPLINE
  5
125
100
AcDbEntity
  8
Layer_1
 62
7
100
AcDbSpline
 70
8
 71
3
 72
8
 73
4
 74
0
 40
0
 40
0
 40
0
 40
0
 40
1
 40
1
 40
1
 40
1
 10
144.530271
 20
326.360988
 30
0.0
 10
145.016467
 20
326.847185
 30
0.0
 10
145.161912
 20
327.578385
 30
0.0
 10
144.898784
 20
328.213632
 30
0.0
  0
SPLINE
  5
126
100
AcDbEntity
  8
Layer_1
 62
7
100
AcDbSpline
 70
8
 71
3
 72
8
 73
4
 74
0
 40
0
 40
0
 40
0
 40
0
 40
1
 40
1
 40
1
 40
1
 10
144.898784
 20
328.213632
 30
0.0
 10
144.635657
 20
328.848878
 30
0.0
 10
144.015775
 20
329.263070
 30
0.0
 10
143.328189
 20
329.263070
 30
0.0
  0
SPLINE
  5
127
100
AcDbEntity
  8
Layer_1
 62
7
100
AcDbSpline
 70
8
 71
3
 72
8
 73
4
 74
0
 40
0
 40
0
 40
0
 40
0
 40
1
 40
1
 40
1
 40
1
 10
143.328189
 20
329.263070
 30
0.0
 10
142.877321
 20
329.263070
 30
0.0
 10
142.444919
 20
329.083963
 30
0.0
 10
142.126107
 20
328.765152
 30
0.0
  0
SPLINE
  5
128
100
AcDbEntity
  8
Layer_1
 62
7
100
AcDbSpline
 70
8
 71
3
 72
8
 73
4
 74
0
 40
0
 40
0
 40
0
 40
0
 40
1
 40
1
 40
1
 40
1
 10
142.126107
 20
328.765152
 30
0.0
 10
141.807296
 20
328.446340
 30
0.0
 10
141.628189
 20
328.013938
 30
0.0
 10
141.628189
 20
327.563070
 30
0.0
  0
LINE
  5
129
100
AcDbEntity
  8
Layer_1
 62
7
100
AcDbLine
 10
141.628189
 20
327.563070
 30
0.0
 11
141.628189
 21
327.563070
 31
0.0
  0
LINE
  5
12a
100
AcDbEntity
  8
Layer_1
 62
7
100
AcDbLine
 10
1.954722
 20
348.701760
 30
0.0
 11
161.954722
 21
348.701760
 31
0.0
  0
LINE
  5
12b
100
AcDbEntity
  8
Layer_1
 62
7
100
AcDbLine
 10
161.954722
 20
348.701760
 30
0.0
 11
161.954722
 21
188.701760
 31
0.0
  0
LINE
  5
12c
100
AcDbEntity
  8
Layer_1
 62
7
100
AcDbLine
 10
161.954722
 20
188.701760
 30
0.0
 11
1.954722
 21
188.701760
 31
0.0
  0
LINE
  5
12d
100
AcDbEntity
  8
Layer_1
 62
7
100
AcDbLine
 10
1.954722
 20
188.701760
 30
0.0
 11
1.954722
 21
348.701760
 31
0.0
  0
SPLINE
  5
12e
100
AcDbEntity
  8
Layer_1
 62
7
100
AcDbSpline
 70
8
 71
3
 72
8
 73
4
 74
0
 40
0
 40
0
 40
0
 40
0
 40
1
 40
1
 40
1
 40
1
 10
6.955148
 20
345.201075
 30
0.0
 10
6.348455
 20
345.201075
 30
0.0
 10
5.801500
 20
344.835611
 30
0.0
 10
5.569329
 20
344.275100
 30
0.0
  0
SPLINE
  5
12f
100
AcDbEntity
  8
Layer_1
 62
7
100
AcDbSpline
 70
8
 71
3
 72
8
 73
4
 74
0
 40
0
 40
0
 40
0
 40
0
 40
1
 40
1
 40
1
 40
1
 10
5.569329
 20
344.275100
 30
0.0
 10
5.337157
 20
343.714588
 30
0.0
 10
5.465491
 20
343.069412
 30
0.0
 10
5.894488
 20
342.640415
 30
0.0
  0
SPLINE
  5
130
100
AcDbEntity
  8
Layer_1
 62
7
100
AcDbSpline
 70
8
 71
3
 72
8
 73
4
 74
0
 40
0
 40
0
 40
0
 40
0
 40
1
 40
1
 40
1
 40
1
 10
5.894488
 20
342.640415
 30
0.0
 10
6.323485
 20
342.211418
 30
0.0
 10
6.968662
 20
342.083084
 30
0.0
 10
7.529173
 20
342.315255
 30
0.0
  0
SPLINE
  5
131
100
AcDbEntity
  8
Layer_1
 62
7
100
AcDbSpline
 70
8
 71
3
 72
8
 73
4
 74
0
 40
0
 40
0
 40
0
 40
0
 40
1
 40
1
 40
1
 40
1
 10
7.529173
 20
342.315255
 30
0.0
 10
8.089685
 20
342.547427
 30
0.0
 10
8.455148
 20
343.094381
 30
0.0
 10
8.455148
 20
343.701075
 30
0.0
  0
SPLINE
  5
132
100
AcDbEntity
  8
Layer_1
 62
7
100
AcDbSpline
 70
8
 71
3
 72
8
 73
4
 74
0
 40
0
 40
0
 40
0
 40
0
 40
1
 40
1
 40
1
 40
1
 10
8.455148
 20
343.701075
 30
0.0
 10
8.455148
 20
344.098899
 30
0.0
 10
8.297113
 20
344.480430
 30
0.0
 10
8.015808
 20
344.761735
 30
0.0
  0
SPLINE
  5
133
100
AcDbEntity
  8
Layer_1
 62
7
100
AcDbSpline
 70
8
 71
3
 72
8
 73
4
 74
0
 40
0
 40
0
 40
0
 40
0
 40
1
 40
1
 40
1
 40
1
 10
8.015808
 20
344.761735
 30
0.0
 10
7.734504
 20
345.043039
 30
0.0
 10
7.352973
 20
345.201075
 30
0.0
 10
6.955148
 20
345.201075
 30
0.0
  0
LINE
  5
134
100
AcDbEntity
  8
Layer_1
 62
7
100
AcDbLine
 10
6.955148
 20
345.201075
 30
0.0
 11
6.955148
 21
345.201075
 31
0.0
  0
SPLINE
  5
135
100
AcDbEntity
  8
Layer_1
 62
7
100
AcDbSpline
 70
8
 71
3
 72
8
 73
4
 74
0
 40
0
 40
0
 40
0
 40
0
 40
1
 40
1
 40
1
 40
1
 10
156.954710
 20
345.201075
 30
0.0
 10
156.348017
 20
345.201075
 30
0.0
 10
155.801062
 20
344.835611
 30
0.0
 10
155.568891
 20
344.275100
 30
0.0
  0
SPLINE
  5
136
100
AcDbEntity
  8
Layer_1
 62
7
100
AcDbSpline
 70
8
 71
3
 72
8
 73
4
 74
0
 40
0
 40
0
 40
0
 40
0
 40
1
 40
1
 40
1
 40
1
 10
155.568891
 20
344.275100
 30
0.0
 10
155.336719
 20
343.714588
 30
0.0
 10
155.465053
 20
343.069412
 30
0.0
 10
155.894050
 20
342.640415
 30
0.0
  0
SPLINE
  5
137
100
AcDbEntity
  8
Layer_1
 62
7
100
AcDbSpline
 70
8
 71
3
 72
8
 73
4
 74
0
 40
0
 40
0
 40
0
 40
0
 40
1
 40
1
 40
1
 40
1
 10
155.894050
 20
342.640415
 30
0.0
 10
156.323047
 20
342.211418
 30
0.0
 10
156.968224
 20
342.083084
 30
0.0
 10
157.528735
 20
342.315255
 30
0.0
  0
SPLINE
  5
138
100
AcDbEntity
  8
Layer_1
 62
7
100
AcDbSpline
 70
8
 71
3
 72
8
 73
4
 74
0
 40
0
 40
0
 40
0
 40
0
 40
1
 40
1
 40
1
 40
1
 10
157.528735
 20
342.315255
 30
0.0
 10
158.089247
 20
342.547427
 30
0.0
 10
158.454710
 20
343.094381
 30
0.0
 10
158.454710
 20
343.701075
 30
0.0
  0
SPLINE
  5
139
100
AcDbEntity
  8
Layer_1
 62
7
100
AcDbSpline
 70
8
 71
3
 72
8
 73
4
 74
0
 40
0
 40
0
 40
0
 40
0
 40
1
 40
1
 40
1
 40
1
 10
158.454710
 20
343.701075
 30
0.0
 10
158.454710
 20
344.098899
 30
0.0
 10
158.296675
 20
344.480430
 30
0.0
 10
158.015370
 20
344.761735
 30
0.0
  0
SPLINE
  5
13a
100
AcDbEntity
  8
Layer_1
 62
7
100
AcDbSpline
 70
8
 71
3
 72
8
 73
4
 74
0
 40
0
 40
0
 40
0
 40
0
 40
1
 40
1
 40
1
 40
1
 10
158.015370
 20
344.761735
 30
0.0
 10
157.734066
 20
345.043039
 30
0.0
 10
157.352535
 20
345.201075
 30
0.0
 10
156.954710
 20
345.201075
 30
0.0
  0
LINE
  5
13b
100
AcDbEntity
  8
Layer_1
 62
7
100
AcDbLine
 10
156.954710
 20
345.201075
 30
0.0
 11
156.954710
 21
345.201075
 31
0.0
  0
SPLINE
  5
13c
100
AcDbEntity
  8
Layer_1
 62
7
100
AcDbSpline
 70
8
 71
3
 72
8
 73
4
 74
0
 40
0
 40
0
 40
0
 40
0
 40
1
 40
1
 40
1
 40
1
 10
156.954710
 20
195.201500
 30
0.0
 10
156.348017
 20
195.201500
 30
0.0
 10
155.801062
 20
194.836037
 30
0.0
 10
155.568891
 20
194.275525
 30
0.0
  0
SPLINE
  5
13d
100
AcDbEntity
  8
Layer_1
 62
7
100
AcDbSpline
 70
8
 71
3
 72
8
 73
4
 74
0
 40
0
 40
0
 40
0
 40
0
 40
1
 40
1
 40
1
 40
1
 10
155.568891
 20
194.275525
 30
0.0
 10
155.336719
 20
193.715014
 30
0.0
 10
155.465053
 20
193.069837
 30
0.0
 10
155.894050
 20
192.640840
 30
0.0
  0
SPLINE
  5
13e
100
AcDbEntity
  8
Layer_1
 62
7
100
AcDbSpline
 70
8
 71
3
 72
8
 73
4
 74
0
 40
0
 40
0
 40
0
 40
0
 40
1
 40
1
 40
1
 40
1
 10
155.894050
 20
192.640840
 30
0.0
 10
156.323047
 20
192.211843
 30
0.0
 10
156.968224
 20
192.083509
 30
0.0
 10
157.528735
 20
192.315681
 30
0.0
  0
SPLINE
  5
13f
100
AcDbEntity
  8
Layer_1
 62
7
100
AcDbSpline
 70
8
 71
3
 72
8
 73
4
 74
0
 40
0
 40
0
 40
0
 40
0
 40
1
 40
1
 40
1
 40
1
 10
157.528735
 20
192.315681
 30
0.0
 10
158.089247
 20
192.547852
 30
0.0
 10
158.454710
 20
193.094807
 30
0.0
 10
158.454710
 20
193.701500
 30
0.0
  0
SPLINE
  5
140
100
AcDbEntity
  8
Layer_1
 62
7
100
AcDbSpline
 70
8
 71
3
 72
8
 73
4
 74
0
 40
0
 40
0
 40
0
 40
0
 40
1
 40
1
 40
1
 40
1
 10
158.454710
 20
193.701500
 30
0.0
 10
158.454710
 20
194.099325
 30
0.0
 10
158.296675
 20
194.480856
 30
0.0
 10
158.015370
 20
194.762160
 30
0.0
  0
SPLINE
  5
141
100
AcDbEntity
  8
Layer_1
 62
7
100
AcDbSpline
 70
8
 71
3
 72
8
 73
4
 74
0
 40
0
 40
0
 40
0
 40
0
 40
1
 40
1
 40
1
 40
1
 10
158.015370
 20
194.762160
 30
0.0
 10
157.734066
 20
195.043465
 30
0.0
 10
157.352535
 20
195.201500
 30
0.0
 10
156.954710
 20
195.201500
 30
0.0
  0
LINE
  5
142
100
AcDbEntity
  8
Layer_1
 62
7
100
AcDbLine
 10
156.954710
 20
195.201500
 30
0.0
 11
156.954710
 21
195.201500
 31
0.0
  0
SPLINE
  5
143
100
AcDbEntity
  8
Layer_1
 62
7
100
AcDbSpline
 70
8
 71
3
 72
8
 73
4
 74
0
 40
0
 40
0
 40
0
 40
0
 40
1
 40
1
 40
1
 40
1
 10
6.954698
 20
195.201500
 30
0.0
 10
6.348005
 20
195.201500
 30
0.0
 10
5.801050
 20
194.836037
 30
0.0
 10
5.568879
 20
194.275525
 30
0.0
  0
SPLINE
  5
144
100
AcDbEntity
  8
Layer_1
 62
7
100
AcDbSpline
 70
8
 71
3
 72
8
 73
4
 74
0
 40
0
 40
0
 40
0
 40
0
 40
1
 40
1
 40
1
 40
1
 10
5.568879
 20
194.275525
 30
0.0
 10
5.336707
 20
193.715014
 30
0.0
 10
5.465041
 20
193.069837
 30
0.0
 10
5.894038
 20
192.640840
 30
0.0
  0
SPLINE
  5
145
100
AcDbEntity
  8
Layer_1
 62
7
100
AcDbSpline
 70
8
 71
3
 72
8
 73
4
 74
0
 40
0
 40
0
 40
0
 40
0
 40
1
 40
1
 40
1
 40
1
 10
5.894038
 20
192.640840
 30
0.0
 10
6.323035
 20
192.211843
 30
0.0
 10
6.968212
 20
192.083509
 30
0.0
 10
7.528723
 20
192.315681
 30
0.0
  0
SPLINE
  5
146
100
AcDbEntity
  8
Layer_1
 62
7
100
AcDbSpline
 70
8
 71
3
 72
8
 73
4
 74
0
 40
0
 40
0
 40
0
 40
0
 40
1
 40
1
 40
1
 40
1
 10
7.528723
 20
192.315681
 30
0.0
 10
8.089235
 20
192.547852
 30
0.0
 10
8.454698
 20
193.094807
 30
0.0
 10
8.454698
 20
193.701500
 30
0.0
  0
SPLINE
  5
147
100
AcDbEntity
  8
Layer_1
 62
7
100
AcDbSpline
 70
8
 71
3
 72
8
 73
4
 74
0
 40
0
 40
0
 40
0
 40
0
 40
1
 40
1
 40
1
 40
1
 10
8.454698
 20
193.701500
 30
0.0
 10
8.454698
 20
194.099325
 30
0.0
 10
8.296663
 20
194.480856
 30
0.0
 10
8.015358
 20
194.762160
 30
0.0
  0
SPLINE
  5
148
100
AcDbEntity
  8
Layer_1
 62
7
100
AcDbSpline
 70
8
 71
3
 72
8
 73
4
 74
0
 40
0
 40
0
 40
0
 40
0
 40
1
 40
1
 40
1
 40
1
 10
8.015358
 20
194.762160
 30
0.0
 10
7.734054
 20
195.043465
 30
0.0
 10
7.352523
 20
195.201500
 30
0.0
 10
6.954698
 20
195.201500
 30
0.0
  0
LINE
  5
149
100
AcDbEntity
  8
Layer_1
 62
7
100
AcDbLine
 10
6.954698
 20
195.201500
 30
0.0
 11
6.954698
 21
195.201500
 31
0.0
  0
SPLINE
  5
14a
100
AcDbEntity
  8
Layer_1
 62
7
100
AcDbSpline
 70
8
 71
3
 72
8
 73
4
 74
0
 40
0
 40
0
 40
0
 40
0
 40
1
 40
1
 40
1
 40
1
 10
95.295837
 20
334.305810
 30
0.0
 10
93.273526
 20
334.305810
 30
0.0
 10
91.450344
 20
333.087599
 30
0.0
 10
90.676439
 20
331.219227
 30
0.0
  0
SPLINE
  5
14b
100
AcDbEntity
  8
Layer_1
 62
7
100
AcDbSpline
 70
8
 71
3
 72
8
 73
4
 74
0
 40
0
 40
0
 40
0
 40
0
 40
1
 40
1
 40
1
 40
1
 10
90.676439
 20
331.219227
 30
0.0
 10
89.902534
 20
329.350855
 30
0.0
 10
90.330313
 20
327.200266
 30
0.0
 10
91.760303
 20
325.770276
 30
0.0
  0
SPLINE
  5
14c
100
AcDbEntity
  8
Layer_1
 62
7
100
AcDbSpline
 70
8
 71
3
 72
8
 73
4
 74
0
 40
0
 40
0
 40
0
 40
0
 40
1
 40
1
 40
1
 40
1
 10
91.760303
 20
325.770276
 30
0.0
 10
93.190293
 20
324.340286
 30
0.0
 10
95.340882
 20
323.912507
 30
0.0
 10
97.209254
 20
324.686412
 30
0.0
  0
SPLINE
  5
14d
100
AcDbEntity
  8
Layer_1
 62
7
100
AcDbSpline
 70
8
 71
3
 72
8
 73
4
 74
0
 40
0
 40
0
 40
0
 40
0
 40
1
 40
1
 40
1
 40
1
 10
97.209254
 20
324.686412
 30
0.0
 10
99.077626
 20
325.460317
 30
0.0
 10
100.295837
 20
327.283499
 30
0.0
 10
100.295837
 20
329.305810
 30
0.0
  0
SPLINE
  5
14e
100
AcDbEntity
  8
Layer_1
 62
7
100
AcDbSpline
 70
8
 71
3
 72
8
 73
4
 74
0
 40
0
 40
0
 40
0
 40
0
 40
1
 40
1
 40
1
 40
1
 10
100.295837
 20
329.305810
 30
0.0
 10
100.295837
 20
330.631892
 30
0.0
 10
99.769053
 20
331.903662
 30
0.0
 10
98.831371
 20
332.841344
 30
0.0
  0
SPLINE
  5
14f
100
AcDbEntity
  8
Layer_1
 62
7
100
AcDbSpline
 70
8
 71
3
 72
8
 73
4
 74
0
 40
0
 40
0
 40
0
 40
0
 40
1
 40
1
 40
1
 40
1
 10
98.831371
 20
332.841344
 30
0.0
 10
97.893689
 20
333.779026
 30
0.0
 10
96.621919
 20
334.305810
 30
0.0
 10
95.295837
 20
334.305810
 30
0.0
  0
LINE
  5
150
100
AcDbEntity
  8
Layer_1
 62
7
100
AcDbLine
 10
95.295837
 20
334.305810
 30
0.0
 11
95.295837
 21
334.305810
 31
0.0
  0
LINE
  5
151
100
AcDbEntity
  8
Layer_1
 62
7
100
AcDbLine
 10
131.216870
 20
330.230280
 30
0.0
 11
137.689413
 21
330.230280
 31
0.0
  0
LINE
  5
152
100
AcDbEntity
  8
Layer_1
 62
7
100
AcDbLine
 10
137.689413
 20
330.230280
 30
0.0
 11
137.689413
 21
325.757737
 31
0.0
  0
LINE
  5
153
100
AcDbEntity
  8
Layer_1
 62
7
100
AcDbLine
 10
137.689413
 20
325.757737
 30
0.0
 11
131.216870
 21
325.757737
 31
0.0
  0
LINE
  5
154
100
AcDbEntity
  8
Layer_1
 62
7
100
AcDbLine
 10
131.216870
 20
325.757737
 30
0.0
 11
131.216870
 21
330.230280
 31
0.0
  0
ENDSEC
  0
SECTION
  2
OBJECTS
  0
DICTIONARY
  5
C
330
0
100
AcDbDictionary
  3
ACAD_GROUP
350
D
  3
ACAD_MLINESTYLE
350
17
  0
DICTIONARY
  5
D
330
C
100
AcDbDictionary
  0
DICTIONARY
  5
1A
330
C
100
AcDbDictionary
  0
DICTIONARY
  5
17
330
C
100
AcDbDictionary
  3
STANDARD
350
18
  0
DICTIONARY
  5
19
330
C
100
AcDbDictionary
  0
ENDSEC
  0
EOF
